<?xml version="1.0" standalone="no"?>
<!DOCTYPE svg PUBLIC "-//W3C//DTD SVG 20010904//EN"
 "http://www.w3.org/TR/2001/REC-SVG-20010904/DTD/svg10.dtd">
<svg version="1.0" xmlns="http://www.w3.org/2000/svg"
 width="512.000000pt" height="512.000000pt" viewBox="0 0 512.000000 512.000000"
 preserveAspectRatio="xMidYMid meet">
<metadata>
Created by potrace 1.14, written by Peter Selinger 2001-2017
</metadata>
<g transform="translate(0.000000,512.000000) scale(0.100000,-0.100000)"
fill="#000000" stroke="none">
<path d="M2425 4854 c-33 -31 -106 -101 -162 -155 -57 -55 -108 -99 -115 -99
-6 0 -9 -3 -6 -6 8 -7 -72 -80 -84 -76 -5 1 -7 -1 -4 -6 8 -13 -83 -94 -96
-86 -6 4 -8 3 -5 -3 4 -6 -36 -50 -87 -99 -318 -304 -400 -379 -408 -376 -5 1
-7 -1 -4 -6 2 -4 -25 -35 -61 -67 -36 -33 -103 -97 -150 -142 -47 -46 -89 -83
-94 -83 -5 0 -9 -7 -9 -15 0 -8 -4 -15 -8 -15 -4 0 -44 -35 -89 -77 -44 -43
-134 -129 -198 -190 -65 -62 -122 -110 -128 -106 -5 3 -7 2 -4 -4 6 -10 -128
-145 -135 -137 -2 2 -9 -11 -16 -28 -6 -17 -9 -28 -6 -25 7 6 110 -103 106
-114 -1 -5 2 -8 6 -7 11 4 88 -73 84 -84 -1 -4 2 -7 6 -6 17 5 114 -103 108
-119 -5 -13 -4 -14 9 -3 12 10 15 10 15 -4 0 -9 7 -16 15 -16 18 0 49 -45 40
-59 -3 -6 0 -9 7 -6 16 6 81 -53 73 -65 -3 -5 0 -12 6 -16 8 -5 9 -3 4 7 -8
12 -6 12 8 0 9 -7 14 -18 10 -25 -3 -6 -2 -8 2 -3 11 9 66 -43 59 -55 -3 -5
-2 -7 3 -6 14 5 115 -100 108 -112 -4 -6 -3 -10 2 -9 23 4 35 -2 30 -16 -4 -8
-1 -17 5 -21 7 -4 8 -3 4 4 -12 20 4 13 29 -12 13 -13 21 -26 19 -29 -3 -3 4
-8 16 -12 13 -4 19 -12 16 -21 -3 -7 -2 -13 2 -12 15 3 42 -15 42 -29 0 -8 5
-11 10 -8 6 3 10 -1 10 -9 0 -8 9 -18 20 -21 11 -3 20 -10 20 -15 0 -5 22 -30
49 -56 28 -26 48 -51 45 -56 -3 -5 -1 -7 4 -6 14 5 142 -128 143 -149 0 -10 3
-13 5 -6 6 13 54 -27 54 -45 0 -6 9 -14 21 -17 11 -4 18 -9 16 -12 -3 -2 12
-20 34 -40 21 -19 36 -39 33 -44 -3 -5 0 -8 8 -7 7 2 12 -3 10 -10 -1 -6 4
-11 10 -10 7 2 12 -3 10 -10 -1 -6 2 -11 7 -10 12 4 181 -169 173 -176 -3 -3
0 -6 6 -6 14 0 92 -75 92 -89 0 -6 7 -11 17 -11 9 0 13 -3 10 -7 -4 -3 2 -13
13 -20 11 -8 17 -19 14 -25 -4 -6 -3 -8 3 -5 10 7 52 -31 52 -47 1 -14 51 -19
51 -5 0 6 6 9 14 6 8 -3 13 1 12 11 0 10 5 16 14 14 8 -2 12 0 8 3 -8 9 82
101 94 98 4 -2 7 1 5 6 -3 11 65 77 75 73 5 -1 7 2 5 7 -4 15 212 223 224 215
8 -5 9 -3 4 5 -9 15 33 63 48 54 6 -3 7 -2 4 4 -4 6 8 24 26 40 17 17 94 94
170 172 78 79 143 138 149 135 6 -4 8 -2 5 3 -4 6 13 31 37 56 33 35 46 43 55
34 9 -9 11 -9 7 3 -8 21 58 95 75 85 7 -5 10 -4 5 3 -7 12 136 162 155 162 7
0 10 3 6 6 -3 4 20 32 51 64 31 31 79 81 107 109 l50 52 -91 87 c-50 48 -123
118 -163 155 -42 39 -69 72 -65 79 4 7 3 8 -4 4 -7 -4 -30 11 -56 36 -24 24
-103 99 -175 167 -72 68 -128 128 -124 134 3 5 1 7 -5 3 -6 -3 -59 41 -118 99
-59 58 -109 105 -112 105 -2 0 -35 32 -73 70 -39 39 -72 70 -75 70 -11 0 -89
84 -86 94 2 6 0 8 -4 3 -4 -4 -20 5 -35 19 l-28 27 -30 -24 c-16 -13 -30 -27
-30 -30 -2 -15 -164 -174 -174 -171 -7 2 -9 0 -5 -4 4 -4 -23 -39 -62 -78 -38
-39 -96 -99 -129 -134 -37 -38 -65 -61 -72 -56 -8 4 -9 3 -5 -5 5 -7 -30 -50
-93 -114 -55 -56 -111 -114 -125 -129 -14 -16 -30 -28 -36 -28 -5 0 -9 -5 -8
-12 4 -18 22 -37 31 -31 4 2 7 -1 7 -7 0 -6 31 -41 70 -78 51 -48 67 -69 59
-78 -8 -9 -5 -11 9 -7 21 5 37 -21 25 -39 -4 -7 -1 -8 6 -3 16 9 73 -44 67
-62 -3 -7 1 -10 8 -7 15 6 50 -31 42 -45 -4 -5 -1 -13 5 -17 8 -4 9 -3 5 4 -4
7 -3 12 3 12 5 0 13 -9 16 -21 4 -11 9 -18 12 -16 3 3 25 -15 49 -41 29 -30
44 -40 44 -29 0 21 40 58 53 50 6 -3 7 -1 4 4 -8 13 17 36 28 25 5 -4 5 -2 1
5 -8 15 42 66 56 57 7 -4 8 -2 4 5 -4 6 0 14 8 17 9 3 14 10 11 14 -5 8 24 25
38 21 5 -1 6 3 3 7 -9 14 31 55 45 46 7 -4 9 -3 6 3 -7 12 26 46 36 38 4 -3 5
-2 2 2 -3 3 0 12 6 20 10 11 19 6 50 -27 22 -23 39 -45 39 -50 0 -6 6 -10 13
-10 7 0 18 -9 25 -20 11 -19 8 -26 -40 -76 -166 -175 -301 -309 -309 -306 -5
1 -8 -1 -8 -5 5 -34 -8 -22 -117 97 -131 145 -179 202 -176 212 1 5 -2 7 -7 4
-5 -3 -30 18 -56 47 -112 123 -192 212 -227 250 -29 32 -35 44 -26 54 6 8 17
12 24 9 8 -3 11 0 8 8 -5 12 94 113 108 109 4 -2 4 5 1 14 -5 13 -2 15 17 10
16 -4 20 -3 12 5 -7 7 9 30 56 78 37 38 71 66 76 63 5 -4 6 -1 3 4 -8 13 27
46 38 36 4 -5 5 -3 2 3 -8 14 249 281 264 276 6 -1 8 2 5 7 -9 13 134 162 147
154 6 -3 7 -2 4 4 -3 5 12 27 34 49 32 31 42 36 49 24 5 -8 6 -18 4 -22 -3 -5
-2 -8 3 -7 16 4 43 -13 43 -27 0 -8 7 -14 15 -14 9 0 20 -10 25 -22 5 -13 9
-19 9 -15 1 4 22 -12 47 -37 26 -24 43 -49 40 -55 -4 -6 -1 -9 7 -5 9 3 43
-23 88 -65 40 -39 77 -71 81 -71 4 0 8 -7 8 -15 0 -8 5 -15 10 -15 6 0 38 -27
72 -60 33 -33 64 -60 69 -60 13 0 11 -18 -3 -22 -7 -3 -5 -7 6 -11 10 -4 15
-3 11 3 -12 19 6 10 33 -17 15 -15 26 -31 24 -36 -1 -5 1 -6 6 -3 11 7 53 -40
44 -49 -4 -4 -2 -6 3 -4 17 4 45 -13 45 -27 0 -8 7 -14 16 -14 8 0 12 -4 9
-10 -3 -5 0 -10 7 -10 7 0 31 -19 53 -41 22 -23 55 -53 73 -66 17 -14 32 -32
32 -39 0 -8 3 -13 8 -12 4 2 29 -19 56 -45 27 -26 53 -47 58 -47 4 0 8 -7 8
-15 0 -8 6 -15 13 -15 15 0 98 -85 91 -94 -2 -3 -1 -4 3 -1 8 6 33 -14 33 -27
0 -5 -5 -6 -12 -2 -7 4 -8 3 -4 -4 4 -6 13 -9 20 -6 15 6 103 -73 98 -88 -1
-5 2 -7 6 -4 5 3 17 -3 27 -14 17 -19 17 -21 0 -40 -10 -11 -22 -17 -28 -13
-5 3 -7 1 -4 -4 8 -13 -27 -46 -37 -36 -4 5 -7 3 -5 -2 4 -16 -12 -45 -22 -39
-5 3 -9 0 -9 -5 0 -6 -35 -47 -77 -90 -43 -44 -114 -118 -157 -165 -44 -46
-85 -82 -90 -79 -6 4 -8 3 -4 -2 7 -7 -11 -28 -128 -151 -23 -24 -44 -41 -48
-39 -3 3 -4 2 -1 -2 8 -10 -238 -252 -249 -246 -5 3 -6 2 -3 -4 7 -11 -86
-106 -96 -98 -4 3 -5 2 -2 -2 9 -11 -147 -163 -159 -156 -6 3 -8 3 -4 -2 10
-11 -241 -257 -254 -249 -7 4 -8 3 -4 -4 4 -7 -16 -35 -50 -67 l-57 -56 -67
63 c-37 35 -66 69 -64 76 2 7 0 11 -4 8 -11 -6 -98 74 -94 86 1 5 -1 7 -6 4
-5 -3 -18 5 -29 17 -11 12 -89 87 -173 167 -85 80 -198 188 -252 240 -127 123
-209 201 -235 223 -19 17 -22 16 -89 -50 -37 -38 -72 -67 -76 -65 -4 1 -7 -2
-6 -6 4 -11 -63 -78 -74 -74 -4 1 -7 -2 -6 -6 4 -11 -223 -238 -234 -235 -4 2
-7 0 -6 -5 0 -4 -2 -15 -7 -26 -5 -12 -3 -21 6 -27 12 -7 12 -10 1 -18 -11 -7
-10 -9 3 -14 9 -4 13 -3 10 3 -3 6 -1 10 4 10 10 0 15 -14 12 -33 -1 -5 2 -6
7 -3 4 2 14 1 22 -4 11 -7 11 -11 1 -24 -8 -9 -9 -16 -3 -16 6 0 12 5 14 12 3
7 20 -4 44 -27 21 -22 38 -43 37 -47 -2 -4 3 -7 10 -5 6 1 11 -4 9 -11 -1 -8
1 -11 6 -8 10 6 68 -54 65 -66 -2 -4 0 -7 5 -7 25 4 33 -3 27 -23 -5 -18 -4
-20 4 -8 8 11 11 12 11 2 0 -7 5 -10 10 -7 6 3 10 -1 10 -10 0 -9 5 -13 10
-10 5 3 10 -1 10 -9 0 -8 5 -18 12 -22 7 -5 8 -3 3 7 -8 12 -6 12 8 0 9 -7 17
-19 17 -27 0 -7 8 -15 18 -18 10 -4 33 -22 52 -41 30 -30 32 -36 19 -52 -13
-16 -12 -17 4 -4 16 12 22 10 57 -25 21 -21 36 -42 34 -46 -3 -4 3 -5 12 -1
12 4 15 3 10 -5 -4 -7 -3 -12 3 -12 15 0 177 -161 173 -172 -1 -5 2 -7 6 -4 5
3 21 -9 36 -26 14 -18 26 -29 26 -27 0 3 26 -19 58 -50 32 -31 56 -59 54 -63
-2 -5 2 -8 8 -8 15 0 41 -26 33 -34 -4 -3 0 -6 8 -6 16 0 55 -40 51 -52 -1 -5
4 -7 11 -5 6 1 11 -4 9 -11 -1 -8 1 -11 6 -8 5 3 23 -10 41 -28 18 -19 29 -36
24 -38 -4 -3 -3 -4 3 -2 15 3 64 -40 64 -56 0 -7 3 -10 7 -7 9 9 34 -13 27
-24 -3 -5 0 -9 6 -9 14 0 60 -46 60 -59 0 -5 5 -13 12 -17 7 -5 8 -3 3 7 -8
12 -6 12 8 0 9 -7 14 -18 10 -24 -3 -5 -1 -7 4 -4 6 4 19 -5 29 -18 10 -14 24
-25 31 -25 6 0 14 -9 18 -19 3 -11 14 -23 25 -26 10 -3 21 -12 23 -20 6 -15
47 -9 47 7 0 6 7 7 16 4 8 -3 13 -2 10 2 -3 5 45 59 105 121 97 100 112 111
127 99 15 -12 16 -11 3 4 -12 16 -5 26 65 95 43 43 83 77 89 75 5 -2 7 -1 3 3
-9 10 15 34 26 27 5 -3 6 -1 3 5 -7 11 83 99 96 95 5 -1 6 1 3 6 -6 10 129
143 138 137 3 -3 4 -2 1 2 -9 12 97 111 114 106 12 -4 13 -2 3 4 -9 7 -1 20
33 52 25 23 45 47 45 52 0 6 5 7 10 4 6 -3 10 -2 10 3 0 18 130 143 142 136 7
-4 8 -3 4 5 -8 12 18 44 28 34 3 -4 6 -1 6 6 0 15 57 71 64 63 3 -3 6 0 6 7 0
19 452 471 464 464 5 -3 6 -1 2 5 -8 13 44 63 57 55 6 -3 7 -1 4 4 -4 6 9 25
28 42 19 17 35 33 35 35 0 10 51 56 62 56 6 0 9 3 5 6 -7 8 17 34 32 34 6 0
10 3 9 8 -3 10 138 152 151 152 6 0 10 6 9 13 -2 6 3 11 9 10 7 -2 12 0 11 5
-4 10 63 77 74 74 5 -1 7 2 4 6 -7 12 28 44 38 35 4 -5 6 -3 4 2 -4 14 201
221 215 217 7 -2 9 -1 5 3 -4 4 9 24 29 44 47 48 57 68 39 78 -12 7 -91 82
-441 418 -34 33 -147 141 -250 240 -104 99 -243 232 -309 296 -67 64 -146 140
-176 168 -54 52 -342 328 -484 465 -221 212 -456 438 -561 540 -66 64 -122
116 -125 116 -3 0 -32 -26 -65 -56z"/>
<path d="M2495 3931 c-3 -5 -2 -12 3 -15 5 -3 9 1 9 9 0 17 -3 19 -12 6z"/>
<path d="M3335 3140 c3 -5 8 -10 11 -10 2 0 4 5 4 10 0 6 -5 10 -11 10 -5 0
-7 -4 -4 -10z"/>
<path d="M3376 3103 c-6 -14 -5 -15 5 -6 7 7 10 15 7 18 -3 3 -9 -2 -12 -12z"/>
<path d="M3460 3006 c0 -2 8 -10 18 -17 15 -13 16 -12 3 4 -13 16 -21 21 -21
13z"/>
<path d="M620 2966 c0 -2 8 -10 18 -17 15 -13 16 -12 3 4 -13 16 -21 21 -21
13z"/>
<path d="M1886 2902 c-3 -5 1 -9 9 -9 8 0 12 4 9 9 -3 4 -7 8 -9 8 -2 0 -6 -4
-9 -8z"/>
<path d="M895 2680 c-3 -6 1 -7 9 -4 18 7 21 14 7 14 -6 0 -13 -4 -16 -10z"/>
<path d="M1076 2501 c-3 -5 2 -15 12 -22 15 -12 16 -12 5 2 -7 9 -10 19 -6 22
3 4 4 7 0 7 -3 0 -8 -4 -11 -9z"/>
<path d="M1313 2245 c0 -8 4 -12 9 -9 5 3 6 10 3 15 -9 13 -12 11 -12 -6z"/>
<path d="M1360 2200 c-9 -6 -10 -10 -3 -10 6 0 15 5 18 10 8 12 4 12 -15 0z"/>
<path d="M1430 2140 c0 -5 5 -10 11 -10 5 0 7 5 4 10 -3 6 -8 10 -11 10 -2 0
-4 -4 -4 -10z"/>
<path d="M1610 1946 c0 -2 7 -7 16 -10 8 -3 12 -2 9 4 -6 10 -25 14 -25 6z"/>
<path d="M1790 1761 c0 -6 4 -13 10 -16 6 -3 7 1 4 9 -7 18 -14 21 -14 7z"/>
<path d="M1309 1157 c6 -8 7 -18 3 -22 -4 -5 -1 -5 6 -1 10 6 10 11 1 22 -6 8
-14 14 -16 14 -3 0 0 -6 6 -13z"/>
<path d="M1740 726 c0 -2 8 -10 18 -17 15 -13 16 -12 3 4 -13 16 -21 21 -21
13z"/>
<path d="M1970 499 c0 -5 5 -7 10 -4 6 3 10 8 10 11 0 2 -4 4 -10 4 -5 0 -10
-5 -10 -11z"/>
</g>
</svg>
