<?xml version="1.0" standalone="no"?>
<!DOCTYPE svg PUBLIC "-//W3C//DTD SVG 20010904//EN"
 "http://www.w3.org/TR/2001/REC-SVG-20010904/DTD/svg10.dtd">
<svg version="1.0" xmlns="http://www.w3.org/2000/svg"
 width="425.000000pt" height="425.000000pt" viewBox="0 0 425.000000 425.000000"
 preserveAspectRatio="xMidYMid meet">
<metadata>
Created by potrace 1.14, written by Peter Selinger 2001-2017
</metadata>
<g transform="translate(0.000000,425.000000) scale(0.100000,-0.100000)"
fill="#000000" stroke="none">
<path d="M1889 3814 c-30 -26 -58 -53 -62 -61 -4 -7 -15 -13 -22 -13 -8 0 -15
-7 -15 -15 0 -8 -4 -15 -8 -15 -5 0 -52 -43 -105 -95 -53 -52 -97 -94 -97 -92
0 2 -54 -49 -119 -113 -65 -63 -172 -164 -237 -225 -64 -60 -126 -120 -137
-132 -11 -12 -25 -19 -31 -16 -6 3 -8 3 -4 -1 4 -5 -25 -38 -64 -75 -39 -36
-102 -96 -141 -133 -39 -38 -75 -68 -80 -68 -4 0 -6 -4 -3 -9 6 -9 -22 -26
-37 -22 -5 1 -6 -2 -3 -7 6 -11 -47 -64 -57 -57 -4 3 -5 2 -2 -1 2 -4 -15 -25
-38 -46 -129 -121 -189 -184 -192 -200 -2 -10 0 -17 4 -15 15 4 113 -102 105
-114 -4 -8 -3 -9 4 -5 15 9 124 -102 115 -117 -4 -6 0 -8 10 -4 15 6 22 -3 18
-26 0 -4 5 -6 11 -5 7 2 12 -3 10 -10 -1 -8 2 -11 7 -8 5 4 36 -22 68 -56 32
-34 77 -80 100 -101 23 -22 40 -44 37 -49 -3 -5 0 -7 8 -6 7 2 12 -5 12 -14
-1 -10 2 -15 7 -12 13 8 63 -42 55 -55 -4 -6 -11 -9 -16 -6 -5 3 -12 0 -16 -7
-4 -7 -4 -10 1 -6 4 4 14 3 22 -4 11 -9 13 -8 11 2 -2 7 3 15 11 18 10 3 12
-1 8 -17 -4 -18 -3 -20 9 -10 10 8 14 8 15 0 4 -32 6 -36 17 -33 14 3 69 -57
64 -71 -1 -5 2 -6 6 -3 12 7 44 -28 35 -37 -3 -4 0 -7 9 -7 17 0 100 -85 91
-94 -4 -3 -1 -6 6 -6 20 0 93 -79 85 -92 -4 -7 -3 -8 4 -4 12 7 62 -38 62 -55
0 -5 7 -9 16 -9 8 0 13 -4 9 -9 -3 -5 3 -12 12 -15 10 -4 29 -22 43 -41 14
-19 30 -35 36 -35 12 0 29 -29 25 -43 -1 -5 2 -6 7 -3 12 7 143 -129 134 -139
-4 -5 -2 -5 4 -2 7 4 25 -8 41 -26 29 -33 73 -54 73 -35 0 16 73 88 89 88 8 0
11 3 7 7 -9 9 65 84 76 77 5 -3 7 0 6 8 -2 7 3 12 10 10 8 -1 11 2 8 7 -4 5 5
18 19 29 13 11 21 22 18 26 -3 3 1 6 10 6 33 0 26 -20 -22 -69 -27 -27 -51
-47 -54 -44 -3 2 -8 -5 -12 -16 -3 -12 -11 -21 -16 -21 -6 0 -7 5 -3 12 4 7 3
8 -5 4 -6 -4 -9 -11 -7 -15 3 -4 -10 -24 -29 -44 -34 -36 -53 -49 -39 -25 4 7
3 8 -5 4 -6 -4 -9 -12 -6 -17 4 -5 -1 -12 -9 -15 -9 -3 -14 -9 -13 -13 2 -3
-7 -16 -20 -28 l-23 -22 -45 41 c-24 22 -42 45 -38 51 3 5 1 7 -4 4 -13 -8
-36 17 -25 28 4 5 2 5 -4 2 -6 -4 -47 28 -90 69 -44 42 -74 74 -68 71 6 -4 11
0 11 7 0 7 -8 11 -17 9 -10 -3 -31 11 -53 36 -20 23 -40 41 -43 41 -3 0 -12 7
-20 15 -9 8 -12 15 -8 15 4 0 -8 11 -27 23 -19 13 -33 29 -31 35 1 7 -5 12
-13 12 -18 0 -19 11 -2 30 10 12 9 12 -5 1 -14 -11 -21 -11 -33 -1 -8 7 -12
16 -9 21 3 5 0 8 -8 7 -7 -2 -12 3 -10 10 1 6 -1 11 -5 10 -15 -5 -53 29 -50
43 2 8 2 11 0 7 -3 -5 -13 -3 -24 3 -14 7 -18 16 -14 32 5 16 4 18 -3 8 -8
-12 -18 -6 -51 26 l-42 41 -74 -75 c-41 -41 -79 -72 -84 -68 -5 3 -13 0 -17
-6 -4 -8 -3 -9 4 -5 19 11 14 -9 -6 -27 -10 -10 -22 -14 -27 -10 -4 5 -6 3 -2
-2 6 -12 -92 -112 -106 -107 -5 1 -6 -2 -3 -7 4 -5 -7 -20 -23 -33 -16 -13
-34 -33 -40 -45 -9 -18 -7 -25 19 -47 17 -13 30 -29 30 -35 0 -6 4 -11 8 -11
5 0 22 -12 38 -26 16 -15 23 -23 15 -19 -9 6 -12 4 -7 -3 4 -7 11 -12 17 -12
5 0 31 -21 57 -47 26 -27 67 -65 90 -85 23 -21 38 -38 34 -38 -4 0 -14 6 -22
13 -12 10 -12 9 -1 -5 7 -10 22 -18 32 -18 11 0 19 -6 19 -14 0 -8 9 -18 20
-21 11 -3 20 -13 20 -21 0 -8 7 -14 15 -14 8 0 15 -7 15 -16 0 -8 4 -13 9 -10
11 7 43 -28 34 -37 -3 -4 -1 -7 6 -7 16 0 101 -82 95 -92 -3 -4 1 -8 9 -8 19
0 49 -34 40 -45 -5 -4 -3 -6 2 -2 6 3 19 -1 30 -9 10 -8 15 -14 10 -14 -5 0 0
-7 12 -15 43 -30 203 -189 203 -202 0 -7 6 -12 13 -10 6 1 11 -6 11 -15 -1
-10 2 -15 7 -12 5 3 21 -4 35 -15 16 -12 21 -21 13 -21 -8 -1 2 -8 21 -16 34
-15 34 -16 15 -31 -18 -14 -19 -15 -1 -9 11 4 29 0 43 -9 20 -13 22 -19 12
-31 -10 -12 -9 -13 4 -9 18 7 99 -63 90 -78 -3 -6 -1 -7 5 -3 6 3 13 2 17 -4
3 -5 10 -10 14 -10 5 0 69 61 144 136 86 86 140 133 148 128 8 -4 9 -3 5 4 -4
7 13 33 40 61 40 42 51 48 63 38 14 -10 14 -10 4 3 -10 13 6 34 102 129 63 62
115 116 115 121 0 5 9 12 20 15 11 3 20 11 20 17 0 14 77 88 84 81 3 -4 6 -2
6 4 0 19 39 55 51 47 8 -4 9 -3 5 4 -9 14 40 66 54 57 6 -3 7 1 4 9 -4 11 0
16 10 16 9 0 15 4 14 8 -4 11 322 338 334 334 5 -1 7 1 4 6 -6 10 74 88 87 84
4 -1 6 2 3 7 -8 12 18 33 29 23 5 -4 5 -2 2 4 -6 11 69 94 86 94 4 0 5 5 1 12
-5 8 -2 9 10 5 9 -4 15 -3 12 1 -8 13 154 173 166 166 6 -4 8 -3 4 4 -9 15
209 236 225 227 8 -6 10 -4 4 4 -4 8 7 28 31 53 l39 39 -110 106 c-205 197
-351 337 -555 533 -112 107 -225 215 -251 240 -91 88 -433 416 -493 474 -77
74 -293 282 -367 353 l-56 55 -54 -48z m89 -749 c11 -14 22 -25 25 -25 11 0
112 -103 110 -111 -2 -5 3 -8 10 -6 6 1 11 -4 9 -12 -2 -8 3 -11 11 -8 17 6
50 -30 41 -45 -5 -7 -2 -8 5 -3 8 5 33 -14 71 -53 32 -33 61 -57 64 -54 3 3 6
-2 6 -12 0 -9 4 -15 8 -12 12 7 84 -68 75 -78 -5 -4 -3 -6 2 -4 14 4 95 -66
95 -82 0 -7 3 -11 6 -7 9 8 85 -64 78 -75 -3 -5 0 -7 8 -6 7 2 12 -3 10 -10
-1 -8 2 -11 7 -8 12 8 43 -23 36 -35 -4 -5 0 -7 7 -4 17 6 112 -90 104 -104
-11 -17 -29 -13 -22 5 3 9 2 12 -5 8 -11 -7 -56 35 -51 49 1 5 -1 6 -6 3 -12
-7 -125 111 -118 123 4 5 2 13 -4 16 -6 4 -10 3 -9 -2 4 -25 -7 -18 -65 39
-36 34 -62 67 -59 72 4 6 3 8 -2 4 -11 -10 -35 10 -31 25 1 7 1 9 -1 5 -9 -15
-25 -8 -19 8 4 11 2 15 -8 11 -16 -6 -30 19 -20 36 5 9 3 9 -6 0 -10 -9 -30 5
-96 71 -46 46 -85 82 -87 80 -2 -2 -33 28 -70 66 -37 39 -72 70 -78 70 -5 0
-7 5 -4 10 3 6 -1 10 -9 10 -9 0 -16 4 -16 9 0 6 -9 9 -20 8 -11 -1 -20 -5
-20 -9 0 -4 -8 -5 -17 -2 -14 5 -15 4 -4 -4 11 -8 -8 -32 -89 -113 -56 -57
-107 -103 -112 -101 -5 1 -7 -1 -4 -6 7 -11 -40 -53 -49 -44 -3 4 -3 -1 1 -11
6 -16 -5 -22 -29 -18 -5 1 -6 -2 -3 -7 6 -10 -75 -98 -86 -94 -5 1 -8 -2 -8
-8 0 -5 -38 -49 -85 -97 -47 -48 -85 -93 -85 -99 0 -6 26 -39 58 -72 51 -55
69 -83 32 -49 -12 10 -12 9 -1 -5 7 -10 19 -18 25 -18 6 0 40 -30 74 -65 49
-50 61 -69 53 -79 -8 -9 -7 -13 4 -13 8 0 12 4 9 9 -3 4 -1 8 5 8 5 0 12 -9
16 -19 3 -11 13 -22 21 -25 9 -3 12 -11 8 -17 -4 -7 -3 -9 4 -5 6 3 13 2 17
-3 3 -5 14 -9 25 -8 10 1 17 3 15 6 -9 9 215 222 227 215 8 -5 9 -2 4 12 -7
18 -6 18 12 -1 13 -14 16 -22 8 -27 -6 -5 -1 -8 13 -8 13 0 22 -3 18 -6 -3 -4
4 -15 16 -25 l22 -18 -47 -48 c-26 -26 -89 -91 -140 -144 l-93 -95 -20 21
c-73 77 -105 117 -100 125 4 6 -1 7 -11 3 -14 -5 -16 -3 -11 11 4 9 3 15 -2
12 -4 -3 -32 22 -62 55 -30 34 -76 85 -104 115 -127 136 -145 156 -145 163 0
10 73 76 82 74 4 -2 4 5 1 14 -4 10 -2 14 4 10 5 -4 15 5 21 18 7 14 16 25 22
25 6 0 8 -5 4 -12 -4 -7 -3 -8 4 -4 6 4 9 12 6 19 -2 7 14 30 37 52 23 22 38
33 34 25 -5 -9 -4 -12 1 -7 5 5 9 13 9 18 0 5 14 24 32 42 18 17 56 57 85 88
161 171 210 219 218 214 5 -3 12 0 16 6 4 8 3 9 -4 5 -7 -4 -12 -4 -12 -1 0 9
63 75 71 75 4 0 16 -11 27 -25z m850 -792 c20 -21 36 -41 34 -46 -1 -5 1 -6 6
-3 4 2 26 -13 47 -36 38 -38 39 -41 20 -54 -10 -8 -15 -14 -11 -14 4 0 1 -7
-8 -15 -8 -8 -19 -15 -25 -15 -16 0 -13 20 4 26 8 4 12 10 9 15 -3 5 -1 9 4 9
8 0 -47 57 -134 138 -15 14 -11 32 7 32 5 0 26 -17 47 -37z m55 -189 c7 -8
-53 -70 -65 -66 -4 1 -7 -4 -5 -10 1 -7 -4 -12 -10 -10 -7 1 -12 -1 -10 -6 2
-9 -38 -62 -48 -62 -3 0 -3 6 1 13 4 7 3 9 -2 4 -5 -5 -9 -12 -10 -15 -2 -18
-17 -42 -26 -42 -5 0 -6 5 -2 12 4 7 3 8 -5 4 -6 -4 -9 -11 -6 -15 8 -14 -82
-104 -96 -96 -8 5 -10 4 -5 -4 5 -7 -6 -25 -28 -45 -19 -19 -32 -37 -28 -41 4
-5 -1 -5 -10 -2 -12 4 -15 2 -11 -9 6 -17 -13 -19 -21 -1 -4 8 -5 7 -5 -3 2
-30 -1 -41 -11 -35 -5 3 -10 0 -10 -7 -1 -21 -57 -71 -71 -62 -8 4 -10 3 -5
-4 10 -17 -179 -206 -196 -196 -7 4 -10 4 -6 -1 12 -13 -12 -47 -28 -41 -9 3
-12 1 -9 -4 10 -15 -44 -65 -57 -52 -7 7 -4 19 11 38 11 15 21 24 21 20 0 -5
49 48 68 74 2 2 8 -2 13 -10 9 -12 10 -12 5 3 -3 9 0 17 6 17 6 0 9 2 6 5 -8
9 63 76 73 69 5 -3 9 4 9 15 0 15 6 21 21 21 11 0 18 4 14 9 -8 15 72 94 86
85 8 -4 10 -3 5 4 -7 12 152 179 166 175 4 -2 7 1 5 5 -2 9 253 271 264 272 3
0 8 -3 12 -6z"/>
<path d="M1755 2871 c-3 -5 -2 -12 3 -15 5 -3 9 1 9 9 0 17 -3 19 -12 6z"/>
<path d="M1480 2590 c-9 -6 -10 -10 -3 -10 6 0 15 5 18 10 8 12 4 12 -15 0z"/>
<path d="M2668 2393 c7 -3 16 -2 19 1 4 3 -2 6 -13 5 -11 0 -14 -3 -6 -6z"/>
<path d="M1380 2381 c0 -6 4 -13 10 -16 6 -3 7 1 4 9 -7 18 -14 21 -14 7z"/>
<path d="M1490 2261 c0 -6 4 -13 10 -16 6 -3 7 1 4 9 -7 18 -14 21 -14 7z"/>
<path d="M475 2341 c-3 -5 -2 -12 3 -15 5 -3 9 1 9 9 0 17 -3 19 -12 6z"/>
<path d="M545 2250 c-3 -6 1 -7 9 -4 18 7 21 14 7 14 -6 0 -13 -4 -16 -10z"/>
<path d="M600 2216 c0 -2 8 -10 18 -17 15 -13 16 -12 3 4 -13 16 -21 21 -21
13z"/>
<path d="M740 2076 c0 -2 8 -10 18 -17 15 -13 16 -12 3 4 -13 16 -21 21 -21
13z"/>
<path d="M810 2010 c0 -5 5 -10 11 -10 5 0 7 5 4 10 -3 6 -8 10 -11 10 -2 0
-4 -4 -4 -10z"/>
<path d="M1090 1710 c0 -5 5 -10 11 -10 5 0 7 5 4 10 -3 6 -8 10 -11 10 -2 0
-4 -4 -4 -10z"/>
<path d="M1139 1668 c-5 -18 -6 -38 -1 -34 7 8 12 36 6 36 -2 0 -4 -1 -5 -2z"/>
<path d="M1233 1565 c0 -8 4 -12 9 -9 5 3 6 10 3 15 -9 13 -12 11 -12 -6z"/>
<path d="M765 1170 c10 -11 20 -20 23 -20 3 0 -3 9 -13 20 -10 11 -20 20 -23
20 -3 0 3 -9 13 -20z"/>
<path d="M936 1017 c3 -10 9 -15 12 -12 3 3 0 11 -7 18 -10 9 -11 8 -5 -6z"/>
<path d="M1015 910 c3 -5 8 -10 11 -10 2 0 4 5 4 10 0 6 -5 10 -11 10 -5 0 -7
-4 -4 -10z"/>
<path d="M1076 843 c-6 -14 -5 -15 5 -6 7 7 10 15 7 18 -3 3 -9 -2 -12 -12z"/>
<path d="M1115 840 c-3 -5 -1 -10 4 -10 6 0 11 5 11 10 0 6 -2 10 -4 10 -3 0
-8 -4 -11 -10z"/>
<path d="M1093 805 c0 -8 4 -12 9 -9 5 3 6 10 3 15 -9 13 -12 11 -12 -6z"/>
<path d="M1296 648 c3 -5 10 -6 15 -3 13 9 11 12 -6 12 -8 0 -12 -4 -9 -9z"/>
<path d="M1315 610 c3 -5 8 -10 11 -10 2 0 4 5 4 10 0 6 -5 10 -11 10 -5 0 -7
-4 -4 -10z"/>
<path d="M1340 616 c0 -2 8 -10 18 -17 15 -13 16 -12 3 4 -13 16 -21 21 -21
13z"/>
<path d="M1426 528 c3 -5 9 -7 12 -4 3 3 12 0 21 -6 13 -10 14 -10 4 2 -15 16
-46 23 -37 8z"/>
<path d="M1507 449 c7 -7 15 -10 18 -7 3 3 -2 9 -12 12 -14 6 -15 5 -6 -5z"/>
<path d="M1580 376 c0 -2 8 -10 18 -17 15 -13 16 -12 3 4 -13 16 -21 21 -21
13z"/>
<path d="M1730 235 c0 -5 5 -17 10 -25 5 -8 10 -10 10 -5 0 6 -5 17 -10 25 -5
8 -10 11 -10 5z"/>
<path d="M1815 150 c-3 -5 -1 -10 4 -10 6 0 11 5 11 10 0 6 -2 10 -4 10 -3 0
-8 -4 -11 -10z"/>
</g>
</svg>
