<?xml version="1.0" standalone="no"?>
<!DOCTYPE svg PUBLIC "-//W3C//DTD SVG 20010904//EN"
 "http://www.w3.org/TR/2001/REC-SVG-20010904/DTD/svg10.dtd">
<svg version="1.0" xmlns="http://www.w3.org/2000/svg"
 width="512.000000pt" height="512.000000pt" viewBox="0 0 512.000000 512.000000"
 preserveAspectRatio="xMidYMid meet">
<metadata>
Created by potrace 1.14, written by Peter Selinger 2001-2017
</metadata>
<g transform="translate(0.000000,512.000000) scale(0.100000,-0.100000)"
fill="#000000" stroke="none">
<path d="M2466 4954 c-3 -8 -11 -12 -16 -9 -6 4 -9 1 -8 -7 2 -7 -3 -12 -9
-10 -7 1 -13 -5 -13 -14 0 -8 -4 -12 -10 -9 -5 3 -10 1 -10 -5 0 -6 -8 -10
-17 -8 -21 3 -66 -26 -56 -35 10 -10 25 -8 19 2 -3 5 1 14 8 20 10 8 16 9 21
1 3 -5 -1 -10 -10 -10 -9 0 -14 -4 -10 -9 9 -16 -35 -35 -49 -21 -8 8 -6 10 9
5 12 -4 15 -3 9 2 -6 4 -16 17 -23 28 -11 19 -12 19 -6 -3 6 -22 5 -23 -15
-12 -12 6 -24 9 -27 7 -2 -3 5 -8 16 -12 12 -3 19 -11 15 -16 -3 -6 -12 -5
-22 3 -9 7 -6 -2 7 -20 20 -29 21 -33 6 -30 -10 2 -20 -3 -23 -11 -3 -8 0 -11
7 -7 7 5 8 1 4 -10 -4 -12 -8 -14 -11 -6 -3 10 -7 10 -20 0 -10 -8 -8 -2 5 18
15 20 19 35 12 45 -5 7 -9 10 -10 4 -2 -28 -9 -47 -20 -61 -11 -14 -15 -13
-32 8 -17 22 -18 22 -8 1 15 -30 14 -32 -10 -28 -17 4 -19 2 -8 -11 6 -8 8
-18 4 -22 -4 -4 -10 -1 -12 6 -3 6 -10 9 -16 5 -7 -4 -8 0 -3 13 6 16 5 17 -6
6 -11 -11 -10 -16 4 -26 10 -7 15 -16 11 -19 -3 -4 -13 -1 -21 6 -13 10 -14 9
-7 -2 6 -11 4 -13 -9 -8 -14 6 -15 3 -5 -14 9 -19 8 -20 -10 -14 -13 4 -21 2
-21 -5 0 -6 4 -9 9 -6 5 4 11 1 13 -5 2 -6 30 14 61 45 60 58 67 63 67 46 0
-5 -7 -10 -15 -10 -16 0 -21 -15 -7 -23 4 -2 1 -2 -6 -1 -7 2 -15 -3 -18 -11
-4 -8 -10 -12 -15 -9 -8 5 -13 -10 -10 -29 1 -5 -3 -6 -8 -3 -5 4 -13 -3 -16
-15 -4 -12 -10 -18 -14 -13 -9 13 -31 16 -31 5 0 -5 5 -11 12 -13 7 -3 5 -7
-6 -11 -9 -4 -15 -3 -12 2 3 4 -4 18 -15 29 -21 23 -39 31 -21 10 11 -14 -10
-42 -23 -30 -4 4 0 -8 10 -27 9 -18 12 -30 6 -27 -6 4 -12 2 -12 -3 -1 -6 -2
-17 -3 -23 -1 -7 -9 -12 -19 -12 -11 1 -16 -4 -15 -14 2 -9 -3 -17 -9 -18 -7
-1 -18 -2 -24 -3 -5 0 -8 -5 -5 -9 2 -4 1 -14 -3 -21 -6 -10 -10 -9 -14 4 -4
9 -3 14 2 10 5 -3 8 3 6 12 -2 10 -4 21 -4 26 -2 16 -41 -19 -41 -37 0 -11 -3
-16 -7 -13 -3 4 -12 -2 -20 -13 -8 -11 -20 -20 -27 -20 -14 0 -31 -27 -27 -43
1 -4 -5 -7 -12 -5 -7 2 -13 1 -13 -2 0 -3 -6 -15 -13 -28 -11 -20 -15 -21 -29
-10 -12 10 -14 10 -8 1 4 -7 3 -13 -1 -13 -5 0 -15 6 -23 13 -12 10 -12 9 -2
-5 10 -13 10 -17 0 -21 -11 -4 -11 -6 0 -6 8 -1 4 -13 -12 -34 -30 -40 -34
-55 -8 -29 11 9 17 21 14 26 -3 5 1 6 8 1 9 -6 11 -4 5 5 -6 9 -4 11 5 5 9 -5
11 -4 6 4 -4 6 0 14 8 17 9 3 13 11 9 17 -3 5 -1 7 5 3 6 -3 13 -2 17 3 3 6
13 7 23 4 15 -6 15 -4 4 9 -11 14 -10 18 6 27 19 10 32 6 32 -11 0 -5 -10 -6
-22 -2 -20 6 -21 5 -10 -9 11 -13 10 -17 -10 -28 -13 -7 -24 -11 -26 -10 -2 2
-6 0 -9 -3 -4 -3 0 -6 8 -7 8 0 4 -4 -9 -10 -13 -5 -20 -13 -17 -19 4 -6 1 -9
-7 -8 -7 2 -12 -2 -11 -9 2 -8 -4 -10 -15 -6 -9 3 -14 2 -10 -2 5 -5 -1 -15
-12 -22 -11 -8 -18 -19 -15 -24 4 -5 1 -9 -4 -9 -6 0 -11 6 -11 13 0 6 -9 1
-19 -13 -11 -13 -17 -28 -14 -32 2 -5 -1 -7 -9 -6 -7 2 -12 -3 -10 -10 1 -8
-2 -11 -7 -7 -6 3 -16 -6 -24 -21 -12 -22 -15 -24 -20 -10 -5 11 -3 15 5 10 7
-4 8 -3 4 4 -4 7 -3 12 3 12 15 0 6 31 -11 41 -12 6 -15 4 -14 -9 0 -9 -5 -16
-11 -15 -7 2 -13 -2 -13 -7 0 -14 13 -13 28 2 8 8 12 8 12 1 0 -15 -25 -34
-35 -25 -5 4 -5 1 -1 -6 4 -7 11 -10 15 -8 4 3 8 -4 8 -15 2 -17 0 -18 -13 -4
-11 11 -21 12 -33 5 -12 -6 -22 -5 -31 3 -10 9 -11 9 -5 -2 6 -11 3 -13 -13
-9 -12 4 -24 3 -27 -1 -2 -5 8 -7 23 -7 15 1 35 -2 46 -7 14 -7 16 -6 11 4 -6
8 -4 10 5 4 9 -6 11 -4 5 5 -5 8 -4 11 3 6 13 -8 5 -36 -10 -36 -5 0 -6 -5 -2
-12 4 -7 3 -8 -5 -4 -6 4 -9 11 -7 15 3 4 -6 7 -19 7 -13 0 -22 -2 -20 -5 1
-4 -9 -15 -23 -25 -25 -19 -25 -19 -19 0 7 19 7 19 -8 0 -8 -10 -12 -23 -9
-27 9 -16 -8 -9 -20 7 -10 13 -12 13 -12 -5 0 -11 2 -18 5 -16 2 3 10 -3 18
-13 8 -9 12 -12 9 -6 -7 14 18 37 29 26 5 -4 4 0 0 8 -8 13 -7 13 11 0 29 -22
30 -24 12 -17 -16 6 -32 -6 -40 -28 -1 -5 -6 -9 -10 -8 -5 2 -8 -2 -8 -8 0 -6
-7 -8 -16 -5 -13 5 -15 2 -11 -13 3 -14 1 -18 -9 -14 -8 3 -14 9 -14 13 0 9
31 36 39 33 3 -1 8 1 10 3 2 2 -2 5 -10 5 -53 5 -69 3 -73 -8 -4 -9 1 -10 20
-3 34 13 39 13 24 -5 -7 -8 -16 -13 -20 -10 -4 3 -7 -3 -6 -13 0 -9 8 -20 16
-24 12 -5 11 -7 -3 -7 -10 -1 -15 -5 -12 -11 3 -5 1 -10 -5 -10 -6 0 -9 -4 -5
-9 3 -6 -4 -8 -16 -6 -15 3 -19 0 -15 -10 3 -8 1 -15 -4 -15 -18 0 -18 16 1
39 11 14 19 18 19 10 0 -12 2 -12 9 0 5 7 6 22 3 33 -4 17 -7 15 -20 -12 -9
-18 -20 -29 -28 -26 -7 3 -16 1 -19 -4 -3 -5 -14 -7 -25 -5 -14 3 -17 -1 -13
-12 5 -11 3 -14 -6 -8 -10 6 -10 2 0 -16 7 -13 13 -27 14 -31 0 -3 3 -10 7
-14 4 -3 5 4 3 16 -2 12 -2 20 2 16 3 -3 12 -1 19 5 16 13 26 -2 13 -21 -7
-13 -9 -13 -9 -1 0 8 -3 11 -7 7 -5 -4 -8 -12 -8 -17 0 -5 -3 -9 -7 -9 -5 0
-14 0 -22 0 -8 0 -13 7 -12 16 0 9 -5 18 -12 20 -7 1 -8 0 -2 -3 15 -7 12 -23
-4 -23 -8 0 -14 -9 -13 -19 0 -11 5 -17 9 -15 5 3 5 10 2 16 -4 6 2 5 15 -2
23 -12 18 -35 -5 -26 -10 4 -14 0 -12 -11 2 -10 -3 -18 -10 -18 -7 0 -17 -7
-22 -15 -8 -13 -11 -13 -22 -1 -11 11 -11 13 1 6 10 -6 12 -4 6 5 -5 9 -4 11
4 6 7 -5 10 -2 9 6 -2 7 3 12 9 10 15 -2 15 5 3 33 -8 20 -9 19 -9 -1 -1 -27
-19 -41 -48 -38 -12 0 -20 -2 -17 -7 2 -4 12 -5 21 -2 11 4 14 3 9 -6 -4 -6
-2 -18 4 -26 7 -8 10 -16 6 -16 -3 -1 -10 -2 -15 -3 -16 -2 -25 -16 -10 -16
12 0 12 -2 -1 -10 -9 -5 -19 -5 -26 0 -6 6 -15 6 -19 2 -5 -4 -5 -1 -1 6 4 7
12 9 18 6 7 -5 8 -2 3 6 -5 9 -4 11 3 6 8 -5 10 -1 6 11 -5 15 -4 16 5 3 6 -8
11 -10 11 -4 0 6 -7 17 -15 24 -14 11 -19 7 -16 -12 2 -13 -33 -48 -49 -49
-13 0 -13 -1 0 -6 8 -3 19 -11 23 -17 6 -7 7 -4 3 7 -5 15 -3 16 14 7 11 -6
20 -13 20 -16 0 -3 -4 -3 -9 1 -6 3 -14 -3 -20 -12 -6 -11 -11 -13 -11 -5 0 7
-5 10 -12 6 -7 -4 -8 -3 -4 5 4 6 4 11 -1 10 -4 -1 -10 0 -13 1 -3 1 -13 3
-22 5 -20 4 -25 -11 -5 -18 15 -5 -10 -39 -27 -35 -6 2 -11 -2 -11 -7 0 -6 5
-9 11 -7 7 1 16 -3 20 -9 5 -8 3 -9 -6 -4 -9 5 -10 2 -6 -13 4 -11 3 -23 -2
-26 -6 -3 -9 1 -8 9 0 7 -3 13 -7 12 -5 -1 -15 9 -23 23 -8 14 -13 18 -11 10
2 -8 1 -22 -4 -31 -5 -11 -3 -16 6 -16 8 0 12 3 10 7 -2 4 2 7 10 7 11 0 12
-4 4 -14 -6 -7 -8 -13 -4 -13 5 0 0 -9 -9 -19 -26 -28 -71 -16 -59 17 3 9 -4
5 -16 -11 -13 -15 -28 -24 -34 -20 -9 5 -9 3 0 -8 6 -8 12 -18 13 -24 1 -5 4
-12 7 -15 4 -3 3 1 -2 9 -5 9 -4 12 2 8 6 -4 13 0 16 8 4 10 1 12 -11 8 -15
-6 -15 -5 -3 11 14 17 16 17 29 -1 7 -10 18 -17 23 -15 6 1 8 -2 4 -8 -5 -8
-12 -7 -23 2 -13 11 -15 10 -9 -5 4 -10 3 -16 -2 -13 -11 7 -33 -19 -24 -28 4
-4 0 -4 -10 0 -13 5 -16 2 -11 -12 5 -16 4 -16 -5 -4 -10 15 -12 13 -15 -12 0
-7 -11 -14 -23 -14 -12 -1 -20 2 -17 7 2 4 10 7 17 5 7 -1 8 -1 4 2 -4 2 7 15
25 29 18 14 25 23 14 19 -10 -3 -26 -1 -35 6 -14 12 -15 11 -1 -5 12 -17 12
-20 0 -28 -36 -21 -40 -27 -34 -42 3 -9 11 -14 18 -11 6 4 -1 -6 -17 -20 -28
-28 -51 -27 -40 0 5 13 7 13 14 2 7 -10 9 -11 9 0 0 7 5 10 12 6 7 -4 8 -3 4
5 -4 6 -12 9 -17 5 -6 -3 -8 5 -5 20 3 15 1 24 -5 21 -5 -4 -7 -10 -4 -15 3
-5 -2 -16 -11 -25 -14 -13 -19 -14 -25 -3 -5 7 -9 9 -9 5 0 -4 8 -20 18 -34 9
-15 11 -24 5 -20 -9 5 -13 2 -13 -9 0 -14 -3 -14 -15 -4 -13 11 -13 15 -3 21
10 6 10 10 0 19 -6 5 -10 7 -7 4 3 -4 0 -13 -6 -21 -9 -10 -15 -11 -26 -2 -10
9 -12 9 -8 -3 7 -19 60 -49 70 -40 5 4 5 1 1 -6 -5 -8 -13 -9 -26 -2 -14 7
-19 6 -24 -6 -4 -12 -2 -15 9 -10 26 10 17 -1 -20 -24 -19 -12 -33 -26 -30
-30 3 -5 0 -12 -6 -16 -8 -4 -9 -3 -5 4 4 7 4 12 -1 13 -4 0 -16 2 -25 4 -10
2 -21 -2 -25 -7 -3 -7 -1 -8 5 -4 7 4 12 2 12 -3 0 -6 -6 -11 -14 -11 -8 0
-18 -4 -21 -10 -4 -6 4 -9 17 -7 17 1 23 -3 22 -15 -1 -10 3 -18 10 -18 7 0 6
-4 -3 -9 -10 -7 -11 -13 -2 -30 7 -12 9 -26 6 -31 -9 -15 -34 0 -32 20 1 10 5
16 11 13 5 -3 6 -1 2 6 -4 6 -12 9 -17 6 -5 -4 -9 -2 -9 2 0 5 -9 14 -20 20
-16 11 -18 10 -14 -1 3 -8 13 -17 21 -21 14 -5 14 -7 -3 -20 -19 -15 -19 -15
0 -8 13 4 17 3 12 -5 -4 -7 -2 -12 4 -12 6 0 9 -4 6 -9 -3 -4 10 -7 30 -5 22
1 34 -2 32 -9 -1 -7 2 -23 6 -36 6 -19 10 -21 18 -10 6 10 7 6 2 -11 -6 -21
-5 -23 8 -12 13 10 17 10 22 -3 3 -9 10 -14 14 -11 5 3 14 -6 20 -19 7 -16 17
-23 27 -19 8 3 12 11 8 17 -3 6 -1 7 5 3 8 -4 8 -15 2 -31 -11 -29 9 -52 30
-32 10 10 11 9 4 -3 -4 -8 -7 -27 -5 -43 1 -15 -1 -27 -6 -26 -19 3 -33 -2
-33 -12 0 -8 6 -7 16 2 15 12 16 11 10 -11 -5 -17 -4 -21 2 -11 8 11 11 11 16
0 3 -8 3 -3 0 11 -5 20 -4 23 7 13 7 -7 18 -13 23 -13 6 0 5 4 -3 9 -8 5 -16
19 -18 31 -3 19 -1 20 12 6 8 -8 24 -18 35 -21 24 -8 25 -18 5 -35 -8 -7 -12
-16 -9 -21 3 -5 0 -9 -7 -9 -10 0 -10 -3 -1 -12 8 -8 15 -8 27 2 9 8 15 8 15
2 0 -6 -6 -15 -14 -19 -12 -7 -11 -10 2 -23 14 -13 15 -12 9 3 -3 9 -2 19 3
22 6 4 10 1 10 -4 0 -6 5 -11 11 -11 8 0 8 4 0 14 -8 10 -8 16 3 25 10 8 16 9
21 1 4 -6 3 -10 -2 -9 -19 3 -23 -2 -11 -15 11 -11 15 -11 26 3 8 9 7 4 -2
-11 -15 -26 -15 -28 1 -29 10 -1 24 -1 30 0 21 3 14 -16 -13 -38 -15 -12 -23
-21 -18 -21 5 0 2 -5 -6 -10 -10 -7 -11 -10 -2 -10 7 0 15 7 18 15 4 8 11 12
17 8 6 -3 7 -1 3 5 -4 7 -2 12 4 12 6 0 15 10 20 23 5 13 9 16 9 6 1 -8 -4
-20 -11 -27 -6 -6 -8 -15 -4 -19 4 -4 12 0 17 10 6 9 15 17 20 17 6 0 3 -7 -5
-16 -9 -8 -16 -20 -16 -25 0 -6 -4 -7 -10 -4 -5 3 -22 -1 -37 -9 -25 -13 -26
-15 -5 -13 12 1 22 5 22 9 0 18 17 6 29 -18 8 -17 17 -24 27 -20 10 4 14 1 11
-6 -2 -7 -11 -12 -20 -12 -9 1 -14 -3 -11 -8 3 -5 13 -7 21 -4 12 5 14 0 10
-21 l-6 -28 12 28 c11 27 31 39 21 12 -4 -8 -1 -15 6 -15 6 0 8 -5 4 -12 -9
-15 24 8 45 32 12 13 13 13 8 -2 -3 -10 -2 -20 3 -23 6 -4 10 -2 10 2 0 5 7
18 15 29 15 17 15 16 2 -11 -15 -32 -12 -59 5 -49 7 4 8 2 4 -4 -5 -9 -13 -9
-27 -2 -11 6 -17 15 -14 20 3 5 1 11 -5 15 -5 3 -10 -1 -10 -10 0 -9 -4 -14
-9 -10 -5 3 -12 1 -15 -4 -4 -5 -2 -12 3 -15 5 -4 13 -1 17 5 13 22 35 -20 23
-44 -7 -12 -7 -17 -1 -13 17 10 41 -5 35 -22 -4 -14 -3 -14 5 -3 8 12 16 8 39
-19 15 -19 27 -40 25 -47 -2 -7 2 -13 8 -13 6 0 8 5 5 10 -3 5 1 10 9 10 18 0
21 -11 7 -26 -6 -5 -4 -16 5 -28 12 -17 14 -18 14 -3 0 9 -5 17 -11 17 -5 0
-7 5 -4 11 4 6 9 8 12 5 3 -3 14 -1 23 4 13 7 21 5 30 -5 7 -8 17 -12 22 -9 6
4 5 10 -3 14 -17 11 -20 37 -3 37 11 0 11 -3 1 -16 -10 -12 -9 -14 5 -9 9 4
15 2 14 -5 -3 -22 -17 -37 -28 -31 -6 4 -8 1 -6 -7 3 -8 10 -13 16 -12 6 1 26
-13 45 -32 19 -19 30 -35 23 -35 -6 0 -5 -4 4 -10 8 -5 11 -13 6 -17 -5 -4
-11 -2 -13 5 -3 6 -9 9 -14 6 -6 -3 -5 -11 2 -20 6 -8 9 -15 5 -15 -3 -1 -12
-2 -18 -3 -7 -1 -12 -7 -10 -14 1 -7 -4 -11 -10 -10 -7 2 -12 -3 -10 -10 1 -8
-1 -11 -6 -8 -5 3 -19 -8 -31 -25 -12 -16 -26 -27 -31 -24 -14 9 1 37 17 31 8
-3 11 -2 8 3 -8 14 -44 9 -38 -5 3 -8 -3 -11 -14 -10 -10 2 -13 1 -6 -1 19 -7
25 -36 10 -50 -12 -12 -16 -10 -27 16 -12 30 -30 42 -30 21 0 -5 5 -10 10 -10
6 0 10 -5 10 -11 0 -5 -4 -8 -9 -5 -11 7 -20 -14 -14 -32 3 -6 9 -9 15 -6 7 4
6 9 -2 14 -9 5 -8 9 2 13 9 3 14 -2 15 -14 1 -10 -2 -20 -8 -20 -5 -1 -13 -2
-18 -3 -15 -2 -26 -16 -13 -16 7 0 12 -5 12 -11 0 -8 -4 -9 -13 0 -8 6 -18 7
-23 3 -5 -4 -1 3 9 15 14 16 15 23 6 29 -8 4 -10 3 -5 -4 4 -7 3 -12 -2 -12
-5 0 -14 10 -21 22 -9 18 -10 18 -5 3 13 -42 13 -73 -1 -85 -8 -7 -12 -17 -8
-24 3 -6 2 -7 -2 -3 -11 9 -16 37 -7 36 23 -3 24 3 2 15 -32 17 -46 9 -25 -14
11 -12 13 -20 6 -25 -6 -3 -11 -2 -11 3 0 5 -9 12 -20 15 -11 3 -18 1 -15 -3
8 -13 -5 -39 -18 -36 -7 1 -9 1 -5 -1 3 -2 5 -16 2 -31 -3 -22 -2 -24 6 -10 6
9 23 26 39 37 25 18 30 19 35 5 3 -8 2 -12 -4 -9 -5 3 -18 1 -27 -4 -14 -8
-15 -10 -3 -11 13 0 13 -2 0 -9 -8 -6 -18 -7 -22 -5 -7 5 -12 -11 -9 -29 1 -5
-4 -5 -11 -1 -20 13 -48 15 -48 4 0 -6 3 -9 8 -9 18 3 32 -2 32 -12 0 -6 -5
-7 -12 -2 -22 13 -39 12 -45 -4 -5 -12 -7 -12 -15 -1 -7 10 -9 10 -7 -2 3 -28
-1 -41 -10 -35 -5 3 -13 0 -17 -6 -4 -8 -11 -4 -20 12 l-12 24 1 -27 c1 -14 4
-24 6 -22 2 2 11 -2 19 -9 13 -10 14 -9 7 2 -6 10 -4 12 5 6 9 -6 11 -4 5 5
-5 8 -4 11 2 7 6 -4 20 8 32 26 11 17 21 26 21 19 0 -7 5 -10 10 -7 6 3 10 1
10 -4 0 -10 -14 -15 -32 -12 -8 1 -12 -15 -9 -31 0 -5 -5 -7 -12 -5 -6 1 -11
-4 -9 -11 1 -8 -2 -11 -9 -6 -8 5 -10 2 -7 -8 5 -11 0 -14 -17 -12 -14 1 -26
-4 -30 -13 -5 -14 -7 -14 -23 1 -10 9 -23 16 -28 16 -4 0 2 -7 14 -16 18 -13
20 -19 11 -36 -8 -15 -8 -19 0 -14 6 4 11 0 11 -9 0 -10 -5 -13 -12 -9 -9 5
-9 2 1 -9 16 -20 2 -23 -20 -5 -9 8 -8 6 2 -5 10 -11 22 -15 33 -11 14 5 15 9
4 15 -10 7 -10 9 0 9 10 0 10 5 1 21 -8 15 -8 24 0 32 8 8 11 4 11 -16 0 -15
4 -27 9 -27 10 0 7 32 -3 49 -7 11 21 8 31 -4 4 -4 2 -5 -5 -1 -9 6 -11 1 -8
-19 3 -17 0 -28 -10 -32 -7 -3 -11 -9 -8 -15 3 -5 -3 -18 -15 -29 -12 -11 -21
-25 -21 -32 0 -9 3 -8 9 1 6 10 11 10 21 -3 19 -23 69 -47 81 -39 6 3 17 -3
25 -15 9 -12 19 -19 24 -16 4 3 10 -2 14 -10 3 -9 12 -12 23 -9 15 5 16 4 3
-5 -13 -9 -13 -11 0 -12 8 -1 18 -1 22 0 5 0 7 -2 7 -7 -3 -20 3 -31 20 -37
28 -8 33 -32 16 -66 -9 -16 -12 -29 -8 -29 5 0 13 10 18 22 13 27 38 37 33 13
-2 -10 3 -20 11 -23 8 -3 11 0 7 7 -4 6 -2 11 3 11 14 0 14 -17 0 -25 -6 -4
-8 -14 -5 -22 4 -10 2 -13 -7 -10 -8 3 -20 1 -28 -4 -11 -8 -9 -9 6 -7 14 2
19 -2 17 -15 -2 -9 2 -17 8 -17 6 0 8 5 5 10 -14 22 16 8 31 -15 9 -14 21 -22
27 -18 6 4 8 0 4 -10 -4 -12 -2 -14 10 -10 12 5 14 3 7 -8 -4 -8 -10 -23 -11
-34 -2 -16 -1 -17 6 -5 5 8 8 17 5 21 -2 4 1 11 6 14 8 5 5 14 -7 28 -10 11
-13 17 -6 14 6 -4 14 -3 18 3 4 6 11 8 16 4 6 -3 8 5 5 21 -3 15 -2 25 1 21
12 -12 12 -40 1 -54 -15 -17 -19 -62 -7 -62 6 0 7 -5 4 -11 -4 -6 2 -5 14 3
27 16 27 28 0 23 -15 -3 -18 -1 -11 8 6 7 10 16 10 22 0 5 6 11 14 13 10 3 10
2 -1 -6 -10 -7 -10 -11 -1 -14 7 -2 14 -16 15 -32 2 -15 1 -25 -2 -22 -8 8
-33 -13 -33 -27 0 -6 6 -3 13 8 10 13 16 15 21 6 4 -6 12 -9 17 -6 5 3 6 -1 3
-10 -5 -13 -9 -13 -23 -3 -14 12 -14 11 -3 -4 8 -9 11 -22 7 -27 -3 -7 0 -8 9
-5 9 3 13 10 10 15 -3 5 0 9 5 9 6 0 11 -5 11 -11 0 -5 5 -7 11 -3 8 5 6 10
-5 16 -21 12 -4 49 22 47 16 -1 16 -2 0 -6 -25 -6 -22 -23 2 -18 12 2 18 0 15
-6 -4 -5 -11 -6 -17 -3 -6 4 -9 1 -6 -7 3 -8 2 -21 -2 -29 -5 -9 -2 -26 6 -40
l15 -25 -7 25 c-6 22 -5 23 9 12 9 -8 14 -19 11 -27 -3 -7 -1 -16 5 -20 7 -4
8 0 4 11 -4 12 -3 15 5 10 13 -8 16 -32 5 -39 -5 -2 -3 -2 4 -1 7 2 15 -1 18
-7 4 -5 11 -7 16 -4 8 6 13 -9 10 -28 -1 -5 7 -6 18 -2 17 5 19 2 15 -21 l-5
-27 20 24 c11 13 20 19 21 12 0 -6 -5 -15 -10 -18 -8 -5 -8 -11 -1 -19 6 -7 8
-15 5 -18 -2 -3 2 -8 11 -12 13 -4 14 -2 5 14 -8 16 -6 21 12 31 20 11 21 10
11 -2 -8 -10 -9 -19 -1 -29 8 -12 9 -12 4 3 -3 9 -1 17 4 17 15 0 12 -40 -2
-40 -7 0 -5 -5 5 -11 9 -6 15 -15 11 -21 -4 -6 2 -8 17 -3 l24 6 -24 -19 c-19
-15 -21 -21 -10 -27 8 -5 11 -5 7 0 -4 4 0 14 10 21 23 18 37 17 22 -1 -10
-12 -8 -13 10 -10 16 3 20 0 16 -10 -3 -8 8 -22 27 -34 18 -11 29 -21 26 -21
-4 0 9 -16 29 -36 32 -32 37 -34 51 -20 13 14 13 15 -6 11 -12 -2 -27 3 -34
11 -13 16 -5 18 21 4 13 -7 21 -7 25 0 5 9 -9 14 -18 8 -2 -2 -11 3 -20 11
-12 9 -17 10 -17 2 0 -7 -5 -9 -11 -6 -6 4 -8 14 -5 22 4 9 2 11 -6 7 -7 -4
-8 -3 -4 4 4 7 1 12 -6 12 -11 0 -11 2 0 9 10 6 4 12 -20 22 -18 8 -37 13 -41
11 -5 -1 -6 2 -2 8 3 5 0 13 -8 16 -15 5 -19 34 -5 34 4 0 8 -6 8 -14 0 -17
24 -38 33 -29 4 3 -1 12 -11 20 -15 13 -15 13 5 3 12 -5 25 -15 29 -22 4 -7 3
-8 -4 -4 -7 4 -12 2 -12 -5 0 -6 8 -9 20 -6 11 3 18 1 15 -3 -3 -5 -1 -11 5
-15 6 -4 7 -11 4 -17 -5 -7 -1 -9 9 -5 9 3 21 -1 29 -11 11 -15 11 -16 -3 -4
-14 10 -18 10 -23 -3 -3 -9 -2 -13 3 -10 5 3 13 0 17 -6 5 -9 11 -6 22 7 11
15 13 15 9 2 -6 -18 18 -32 36 -21 7 4 4 -5 -5 -20 -24 -36 -22 -44 4 -21 22
19 22 19 8 0 -14 -18 -13 -19 3 -13 44 18 50 18 22 0 -16 -11 -32 -17 -35 -14
-9 11 -30 11 -30 1 0 -6 7 -10 16 -10 10 0 14 -6 11 -15 -8 -20 11 -29 28 -15
10 8 15 9 15 2 0 -6 -8 -16 -17 -21 -10 -6 -13 -11 -7 -11 5 0 15 5 21 11 8 8
13 8 17 0 4 -6 2 -11 -4 -11 -6 0 -2 -14 10 -31 12 -16 28 -28 35 -26 18 8 49
-33 36 -46 -8 -8 -11 -7 -11 2 0 7 -5 9 -11 5 -8 -4 -7 -9 2 -15 9 -5 21 -1
35 12 11 10 24 16 29 12 4 -5 5 -3 1 4 -3 6 -1 15 5 19 8 4 9 3 5 -4 -4 -7 -3
-12 3 -12 5 0 12 6 14 13 4 9 6 9 6 0 1 -7 -12 -19 -28 -28 -36 -18 -45 -31
-30 -41 7 -4 9 -3 6 3 -4 6 4 11 20 11 25 0 26 -1 8 -14 -17 -12 -17 -14 -2
-14 9 0 17 5 17 11 0 5 5 7 11 4 7 -5 2 -17 -13 -33 -20 -24 -20 -25 -1 -9 14
12 23 15 28 8 3 -6 2 -11 -2 -11 -5 0 -14 -10 -22 -23 -13 -21 -13 -22 6 -4
11 9 23 14 28 10 4 -5 5 -2 1 4 -4 7 -3 13 2 13 17 0 22 -13 9 -28 -9 -13 -9
-14 1 -8 6 4 12 2 12 -4 0 -6 11 -8 27 -6 15 3 33 0 42 -7 12 -10 14 -9 8 7
-6 16 -5 17 7 7 11 -10 17 -8 25 6 6 10 10 14 11 8 0 -27 -40 -51 -58 -33 -5
5 -12 6 -15 1 -3 -4 8 -24 24 -43 16 -19 29 -29 29 -22 0 7 5 10 10 7 6 -3 10
-1 10 5 0 7 -7 9 -16 6 -10 -4 -13 -2 -8 6 5 7 3 8 -6 3 -9 -6 -11 -4 -5 5 6
9 4 11 -5 5 -8 -5 -11 -4 -7 3 4 5 15 9 25 8 9 -2 19 0 22 5 3 4 12 4 20 -1
13 -8 12 -10 -2 -10 -10 0 -18 -5 -18 -11 0 -5 4 -8 9 -5 5 3 15 -1 22 -10 11
-14 14 -14 24 -1 9 12 12 12 25 -1 13 -14 12 -15 -3 -9 -9 3 -19 2 -23 -4 -4
-6 -14 -3 -27 8 -18 16 -20 16 -14 1 4 -11 0 -19 -14 -23 -10 -4 -19 -11 -19
-16 0 -6 4 -8 9 -4 6 3 14 -3 20 -12 6 -10 11 -13 11 -8 0 6 -5 16 -12 23 -9
9 -9 12 0 12 6 0 16 -8 21 -17 6 -10 11 -13 11 -8 0 6 -5 16 -11 22 -8 8 -1
10 23 9 18 -2 39 2 46 7 6 5 12 6 12 1 0 -5 4 -3 9 4 7 11 10 11 22 0 8 -7 21
-13 29 -13 8 1 21 -3 28 -8 9 -7 17 -6 25 2 9 10 8 11 -8 5 -13 -5 -6 6 18 29
21 21 43 35 48 32 5 -4 6 2 2 11 -4 12 -3 15 5 10 7 -4 12 -1 12 8 0 10 6 13
17 9 11 -5 14 -3 9 6 -5 8 9 29 40 59 26 26 44 41 39 33 -6 -10 -4 -12 4 -7 7
5 10 14 7 22 -3 8 -1 14 3 14 5 0 12 -6 14 -12 3 -7 6 -3 6 10 1 12 6 22 11
22 9 0 14 -15 11 -33 -1 -5 3 -5 9 -2 8 5 6 14 -4 30 -12 19 -13 25 -2 34 9 7
16 7 23 0 8 -8 13 -7 18 2 5 8 4 10 -3 5 -7 -4 -12 -2 -12 3 0 6 4 11 10 11 5
0 9 5 7 12 -1 7 9 12 24 12 15 -1 26 4 26 12 0 8 -5 11 -12 6 -6 -4 -3 1 7 10
11 9 19 19 18 22 0 4 0 8 0 11 0 3 11 -1 23 -10 20 -13 24 -13 24 -1 0 8 -6
12 -12 10 -6 -3 -12 2 -12 11 0 8 3 15 7 15 11 0 70 59 70 70 0 6 4 10 9 10 5
0 7 -17 5 -37 -2 -26 0 -33 6 -23 5 8 7 17 4 21 -2 4 0 10 6 14 7 4 6 13 -1
27 -8 15 -8 19 0 14 6 -4 11 -2 11 4 0 6 5 8 12 4 7 -4 8 -3 4 4 -7 11 31 58
40 49 2 -2 -2 -10 -11 -17 -8 -7 -15 -17 -15 -23 0 -5 10 2 21 17 12 15 19 30
16 33 -3 3 8 18 25 35 25 25 32 27 46 16 15 -12 16 -11 3 4 -11 15 -11 19 3
24 9 3 13 11 9 18 -4 6 0 5 9 -2 14 -11 16 -10 11 9 -5 19 -3 21 16 16 19 -5
20 -3 9 11 -10 12 -10 14 0 8 7 -4 12 -2 12 6 0 8 5 19 12 26 9 9 16 8 31 -6
19 -16 19 -16 6 5 -12 21 -11 25 21 57 19 20 41 36 48 36 7 0 11 4 8 8 -6 11
226 242 243 242 7 0 10 4 7 9 -3 5 9 23 28 39 19 17 32 32 30 35 -3 2 6 3 19
2 19 -2 24 1 20 15 -6 24 12 33 39 20 19 -9 21 -9 8 2 -8 7 -16 19 -18 27 -3
12 0 12 13 1 13 -11 15 -10 9 4 -4 10 0 18 10 22 9 3 14 10 11 14 -6 10 23 22
35 15 4 -3 6 3 3 14 -7 26 26 36 44 14 13 -16 13 -16 3 5 -9 19 -7 27 10 50
12 15 25 26 28 25 4 -2 7 1 7 7 0 14 41 41 50 32 5 -4 5 -1 1 6 -11 19 11 40
38 37 18 -2 23 1 19 12 -5 12 -7 12 -15 1 -8 -10 -9 -10 -5 2 2 8 9 15 15 15
7 0 12 3 12 7 1 4 17 25 36 47 26 29 41 38 57 34 16 -4 18 -2 8 5 -14 10 -7
32 10 32 6 0 8 -4 4 -9 -3 -5 -1 -12 3 -15 5 -3 8 5 8 17 -3 31 4 40 19 27 11
-9 12 -7 8 9 -4 15 -1 21 11 21 10 0 15 4 12 9 -7 11 28 43 37 34 4 -3 7 1 7
11 0 9 5 14 10 11 6 -4 7 -11 4 -17 -4 -7 -2 -8 4 -4 6 4 9 13 6 21 -9 22 40
69 64 63 15 -4 19 -2 15 8 -3 8 -10 11 -17 7 -6 -3 0 4 13 17 19 18 25 20 32
9 7 -11 9 -11 9 -1 0 7 5 10 10 7 6 -4 9 -1 8 7 -2 8 5 12 17 10 20 -4 20 -3
0 11 -19 14 -16 18 57 90 42 41 74 78 70 82 -4 5 7 5 23 1 28 -7 29 -7 10 8
-19 15 -19 15 8 10 15 -2 27 0 27 6 0 6 -4 8 -10 5 -5 -3 -10 -1 -10 4 0 6 5
11 10 11 6 0 10 7 10 16 0 8 5 12 10 9 6 -4 8 -10 5 -15 -3 -5 -1 -11 4 -15 6
-3 8 5 6 17 -6 31 42 85 73 82 12 0 22 3 22 8 0 6 -7 7 -16 4 -14 -5 -15 -4
-4 9 7 8 16 12 21 9 5 -3 6 3 2 12 -4 10 -2 15 3 11 5 -3 19 8 29 24 11 16 24
29 29 29 5 0 -1 -12 -15 -27 -23 -27 -22 -27 11 2 19 17 37 32 40 34 3 2 -3 1
-12 -2 -10 -4 -18 -3 -18 1 0 8 40 36 52 37 3 0 10 4 15 9 5 5 2 6 -6 1 -9 -5
-12 -3 -9 6 3 8 12 13 21 11 8 -1 19 3 23 9 4 8 3 9 -4 5 -21 -13 -13 12 11
31 12 10 33 31 46 45 l23 27 -58 56 c-33 31 -78 74 -101 95 -22 21 -38 41 -35
44 3 3 1 6 -5 6 -15 0 -108 90 -105 102 1 5 -1 7 -6 4 -10 -6 -58 45 -54 57 1
5 -1 6 -6 3 -12 -7 -54 38 -45 49 5 4 3 5 -3 2 -12 -7 -131 101 -126 115 1 5
-1 7 -6 4 -10 -6 -118 103 -114 116 1 4 -1 7 -5 6 -14 -4 -53 27 -53 41 0 8
-3 12 -6 8 -8 -8 -120 102 -116 114 1 5 -2 8 -7 7 -15 -5 -82 62 -75 74 4 7 3
8 -4 4 -12 -7 -99 71 -94 85 1 5 -4 8 -10 7 -7 -2 -12 3 -10 10 1 6 -2 11 -7
10 -4 -2 -33 20 -62 49 -177 171 -265 253 -271 253 -4 0 -9 9 -13 19 -3 10
-15 21 -27 24 -14 4 -19 11 -14 22 3 9 2 14 -2 11 -12 -7 -53 24 -47 35 4 5 0
9 -7 9 -8 0 -37 24 -65 53 -28 28 -103 101 -166 161 -64 61 -113 114 -110 120
3 5 2 6 -3 3 -11 -6 -144 117 -144 133 0 6 -4 9 -8 8 -5 -2 -55 43 -113 99
-57 56 -119 115 -138 131 -22 19 -31 34 -26 42 5 9 4 11 -4 6 -7 -5 -27 7 -49
28 -40 39 -57 44 -66 20z m-154 -138 c7 4 8 2 4 -5 -6 -9 -11 -9 -22 0 -7 6
-11 16 -7 23 5 7 9 5 11 -7 2 -9 8 -14 14 -11z m-182 -136 c0 -5 -5 -10 -11
-10 -5 0 -7 5 -4 10 3 6 8 10 11 10 2 0 4 -4 4 -10z m-56 -93 c6 -4 1 -6 -11
-4 -32 4 -38 14 -22 33 13 16 14 16 18 -2 2 -10 8 -22 15 -27z m-151 -99 c-4
-7 -8 -17 -9 -23 0 -5 -2 -16 -2 -24 -1 -7 -8 -11 -17 -8 -8 4 -17 1 -21 -5
-4 -6 -3 -8 4 -4 6 3 14 2 17 -4 4 -6 3 -10 -2 -9 -19 3 -34 -2 -29 -10 8 -13
-23 -22 -41 -12 -14 7 -11 12 13 27 16 10 35 24 42 31 8 7 19 10 25 6 7 -4 8
0 4 11 -8 20 -1 36 14 36 6 0 7 -6 2 -12z m-450 -453 c4 -8 1 -17 -5 -21 -7
-5 -8 -2 -3 6 5 8 3 11 -6 8 -8 -3 -13 -10 -12 -16 2 -7 -4 -9 -13 -5 -14 5
-13 9 7 24 29 22 26 22 32 4z m1002 -95 c-3 -5 -12 -10 -18 -10 -7 0 -6 4 3
10 19 12 23 12 15 0z m-55 -60 c-8 -5 -22 -9 -30 -9 -10 0 -8 3 5 9 27 12 43
12 25 0z m18 -14 c-10 -7 -14 -17 -10 -21 4 -5 1 -5 -7 0 -12 7 -11 10 4 22
24 17 36 17 13 -1z m-1196 -22 c-8 -15 -42 -30 -42 -19 0 14 14 34 20 30 5 -3
12 0 15 6 11 17 18 2 7 -17z m1168 -11 c0 -3 -3 -3 -7 0 -3 4 -11 -1 -18 -10
-9 -13 -14 -13 -20 -3 -6 9 -4 11 5 5 10 -6 12 -3 8 13 -5 19 -3 20 13 11 10
-5 19 -13 19 -16z m0 -17 c0 -2 -8 -10 -17 -17 -16 -13 -17 -12 -4 4 13 16 21
21 21 13z m-37 -33 c3 -5 -5 -8 -18 -8 -13 0 -21 3 -18 8 2 4 10 7 18 7 8 0
16 -3 18 -7z m-59 -25 c-3 -4 -9 -8 -15 -8 -5 0 -9 4 -9 8 0 5 7 9 15 9 8 0
12 -4 9 -9z m-33 -29 c6 -13 7 -19 1 -15 -6 3 -13 0 -16 -6 -3 -7 -3 -2 0 11
5 17 3 21 -6 16 -9 -5 -11 -4 -6 3 10 16 14 15 27 -9z m-36 -37 c-1 -9 3 -24
9 -32 10 -13 9 -13 -6 -1 -10 7 -15 17 -12 22 3 5 -1 9 -8 10 -10 0 -10 2 0 6
6 2 9 10 6 15 -4 6 -2 8 4 5 5 -4 9 -15 7 -25z m-31 -37 c-4 -8 -11 -12 -16
-9 -6 4 -5 10 3 15 19 12 19 11 13 -6z m-1204 -80 c0 -3 -4 -3 -10 0 -5 3 -10
2 -10 -2 0 -5 -9 -9 -20 -10 -18 -2 -19 0 -5 14 9 9 13 23 10 32 -4 10 1 8 14
-6 12 -12 21 -25 21 -28z m1164 36 c19 9 19 9 4 -4 -10 -8 -15 -17 -11 -20 3
-4 4 -7 1 -7 -3 0 -13 10 -24 23 -10 12 -12 17 -5 10 10 -9 20 -9 35 -2z m-30
-45 c-3 -8 -18 -13 -34 -12 -15 0 -26 4 -24 8 2 4 13 5 24 3 11 -2 22 0 25 6
9 14 15 11 9 -5z m-87 -88 c-3 -8 -6 -5 -6 6 -1 11 2 17 5 13 3 -3 4 -12 1
-19z m-54 -23 c-3 -9 -8 -14 -10 -11 -3 3 -2 9 2 15 9 16 15 13 8 -4z m17 -29
c0 -2 -9 -6 -20 -9 -11 -3 -18 -1 -14 4 5 9 34 13 34 5z m-48 -27 c2 -2 1 -3
-1 -2 -2 1 -12 -2 -22 -8 -14 -7 -17 -6 -13 5 5 13 29 16 36 5z m-37 -39 c-3
-5 -12 -10 -18 -10 -7 0 -6 4 3 10 19 12 23 12 15 0z m-101 -78 c3 -5 -1 -9
-9 -9 -8 0 -12 4 -9 9 3 4 7 8 9 8 2 0 6 -4 9 -8z m-28 -47 c1 -14 -1 -25 -5
-25 -4 0 -7 13 -7 30 0 35 8 31 12 -5z m-36 -50 c14 -19 14 -19 -2 -6 -10 7
-18 18 -18 24 0 6 1 8 3 6 1 -2 9 -13 17 -24z m-1217 -34 c3 -13 1 -18 -9 -14
-7 2 -10 11 -7 19 7 19 10 18 16 -5z m1162 9 c-3 -5 -12 -10 -18 -10 -7 0 -6
4 3 10 19 12 23 12 15 0z m13 -38 c2 -7 -1 -12 -8 -12 -6 0 -9 4 -6 9 4 5 1
12 -4 14 -6 3 -5 4 2 3 6 -1 14 -8 16 -14z m22 -26 c0 -2 -8 -10 -17 -17 -16
-13 -17 -12 -4 4 13 16 21 21 21 13z m-1165 -16 c4 -6 1 -9 -7 -8 -7 2 -12 -4
-10 -12 3 -12 1 -13 -10 -2 -11 11 -10 14 2 22 19 12 18 12 25 0z m45 -74 c0
-3 -4 -8 -10 -11 -5 -3 -10 -1 -10 4 0 6 5 11 10 11 6 0 10 -2 10 -4z m40 -71
c0 -5 -5 -3 -10 5 -5 8 -10 20 -10 25 0 6 5 3 10 -5 5 -8 10 -19 10 -25z
m2937 0 c0 -8 -4 -12 -9 -9 -5 3 -6 10 -3 15 9 13 12 11 12 -6z m-1117 -15 c0
-5 -5 -10 -11 -10 -5 0 -7 5 -4 10 3 6 8 10 11 10 2 0 4 -4 4 -10z m-43 -17
c-3 -5 -1 -19 4 -32 8 -20 11 -22 26 -10 9 8 14 10 11 4 -3 -5 0 -16 8 -23 8
-7 14 -8 14 -2 0 5 4 10 8 10 5 0 9 -7 9 -15 0 -8 -4 -12 -9 -9 -4 3 -8 0 -8
-5 0 -10 14 -15 33 -12 4 0 7 -4 7 -10 0 -6 -9 -8 -22 -4 -19 6 -21 5 -10 -6
6 -7 12 -18 12 -23 0 -6 -5 -4 -10 4 -5 8 -14 16 -20 16 -5 1 -15 2 -21 3 -5
0 -8 5 -4 10 3 5 1 12 -5 16 -6 4 -8 12 -4 18 3 7 -2 3 -11 -8 -16 -19 -16
-19 -11 8 3 15 1 25 -4 22 -9 -6 -7 -39 6 -70 7 -18 6 -18 -9 -6 -14 11 -18
11 -23 -3 -3 -9 -3 -23 0 -32 5 -13 9 -14 21 -4 11 9 14 8 12 -9 -1 -13 -6
-20 -14 -17 -7 3 -17 -3 -23 -14 -6 -12 -17 -17 -28 -14 -16 5 -16 5 0 -6 16
-9 15 -45 -1 -36 -3 2 -17 -2 -31 -11 -17 -9 -18 -12 -5 -8 21 7 44 13 58 14
4 1 6 7 5 14 -2 6 3 11 11 9 11 -2 12 0 3 10 -6 8 -8 19 -4 25 11 17 35 -1 38
-29 2 -13 0 -17 -2 -10 -7 15 -24 6 -20 -11 1 -7 1 -9 -1 -4 -7 12 -23 -3 -17
-16 2 -7 -6 -22 -18 -33 l-23 -19 19 23 c11 12 16 25 12 29 -4 5 -12 0 -17 -9
-5 -9 -15 -23 -23 -30 -7 -7 -11 -18 -9 -25 2 -6 -1 -14 -6 -18 -7 -4 -8 1 -4
12 6 16 5 16 -10 5 -8 -8 -14 -19 -11 -26 5 -12 -17 -28 -40 -30 -5 -1 -11 -7
-14 -15 -3 -9 0 -11 8 -6 9 5 11 4 6 -4 -6 -9 -11 -9 -21 -1 -15 12 -16 50 -2
50 5 0 6 -8 3 -17 -5 -15 -3 -15 9 1 19 25 3 45 -19 26 -9 -7 -13 -16 -10 -21
3 -5 3 -9 -1 -9 -10 0 -75 69 -75 80 0 6 -5 8 -12 4 -6 -4 -8 -3 -5 3 4 5 -5
16 -18 23 -29 16 -32 35 -8 44 15 6 15 8 3 16 -11 7 -10 9 7 7 12 0 19 -5 17
-9 -6 -9 7 -11 48 -8 16 1 30 -6 37 -17 6 -10 11 -14 11 -9 0 5 -7 18 -17 28
-15 17 -15 18 3 18 19 1 80 47 72 55 -2 2 -17 -7 -32 -20 -16 -14 -32 -25 -35
-25 -9 0 57 60 66 61 5 0 14 12 21 26 10 18 17 22 25 14 14 -14 27 -14 27 0 0
5 -4 8 -8 5 -5 -3 -9 1 -9 9 0 8 3 15 6 16 3 0 14 2 24 4 9 2 15 -1 11 -6 -3
-5 -10 -6 -16 -3 -7 4 -8 2 -4 -5 4 -6 12 -9 17 -6 5 4 9 2 9 -4 0 -5 -4 -13
-10 -16 -5 -3 -10 -11 -10 -18 0 -17 27 25 27 43 0 8 4 24 8 35 7 16 6 18 -6
8 -7 -7 -17 -13 -23 -13 -5 0 -1 6 9 14 11 8 24 12 29 8 5 -3 7 2 3 10 -3 9
-3 19 0 22 9 8 15 7 10 -1z m20 -25 c-3 -8 -6 -5 -6 6 -1 11 2 17 5 13 3 -3 4
-12 1 -19z m40 -10 c-3 -8 -6 -5 -6 6 -1 11 2 17 5 13 3 -3 4 -12 1 -19z
m-1777 -2 c0 -3 -4 -8 -10 -11 -5 -3 -10 -1 -10 4 0 6 5 11 10 11 6 0 10 -2
10 -4z m36 -41 c1 -9 -4 -11 -14 -7 -10 4 -12 7 -4 10 7 2 9 9 5 15 -3 7 -2 8
2 4 5 -4 10 -14 11 -22z m1700 -23 c-7 -11 30 -42 40 -34 4 4 -3 -8 -15 -26
-13 -18 -21 -36 -18 -38 3 -3 13 6 22 20 18 27 35 34 35 15 0 -5 -4 -7 -10 -4
-5 3 -10 3 -10 -2 -1 -18 -28 -43 -41 -38 -16 6 -22 115 -7 115 5 0 7 -4 4 -8z
m-34 -54 c-9 -9 -12 -7 -12 12 0 19 3 21 12 12 9 -9 9 -15 0 -24z m-1607 -8
c-3 -5 -1 -10 5 -10 6 0 8 -5 4 -12 -6 -9 -9 -9 -12 1 -3 8 -8 7 -18 -6 -11
-13 -14 -14 -12 -3 2 8 10 20 18 27 18 15 23 16 15 3z m66 -17 c13 -16 12 -17
-3 -4 -10 7 -18 15 -18 17 0 8 8 3 21 -13z m1194 -12 c-3 -6 3 -14 12 -20 15
-8 16 -12 4 -23 -8 -7 -11 -8 -8 -2 8 14 -17 37 -29 26 -4 -4 -2 1 5 11 14 18
26 24 16 8z m1645 -7 c0 -8 -19 -13 -24 -6 -3 5 1 9 9 9 8 0 15 -2 15 -3z
m-2827 -29 c-3 -9 -8 -14 -10 -11 -3 3 -2 9 2 15 9 16 15 13 8 -4z m104 -85
c-1 -21 -10 -18 -13 5 -1 8 2 15 6 15 5 0 8 -9 7 -20z m2603 16 c0 -2 -7 -7
-16 -10 -8 -3 -12 -2 -9 4 6 10 25 14 25 6z m-2626 -41 c8 -8 19 -15 25 -15 6
0 11 -4 11 -9 0 -5 7 -17 16 -26 13 -12 14 -18 4 -31 -13 -15 -25 -11 -25 9 0
7 -7 12 -16 11 -10 -1 -15 6 -14 20 2 20 -16 46 -31 46 -5 0 -3 -5 4 -12 15
-15 15 -28 1 -28 -5 0 -8 4 -5 9 4 5 1 11 -6 13 -12 4 -3 28 12 28 5 0 15 -7
24 -15z m2559 -60 c-3 -9 -8 -14 -10 -11 -3 3 -2 9 2 15 9 16 15 13 8 -4z
m-2418 -56 c11 -16 1 -19 -13 -3 -7 8 -8 14 -3 14 5 0 13 -5 16 -11z m2356
-22 c-10 -9 -11 -8 -5 6 3 10 9 15 12 12 3 -3 0 -11 -7 -18z m-2311 -41 c-1
-6 -7 0 -14 13 -10 18 -15 20 -21 10 -5 -8 -4 -14 4 -17 11 -4 11 -6 0 -13
-11 -7 -9 -9 6 -9 11 0 26 -10 34 -22 l14 -22 18 23 c11 13 19 18 19 12 0 -5
-10 -20 -22 -31 -16 -15 -18 -21 -8 -20 31 5 60 0 60 -10 0 -5 -7 -6 -17 -3
-10 4 -14 2 -9 -5 3 -6 1 -14 -6 -18 -7 -4 -10 -3 -5 1 4 5 -9 18 -30 29 -20
12 -39 27 -41 35 -3 9 0 11 9 6 8 -5 11 -4 6 1 -5 5 -12 9 -15 9 -4 1 -21 8
-38 17 -37 20 -41 46 -7 42 12 -1 26 3 29 8 8 12 34 -18 34 -36z m15 34 c3 -5
1 -10 -4 -10 -6 0 -11 5 -11 10 0 6 2 10 4 10 3 0 8 -4 11 -10z m20 -49 c3 -5
0 -13 -6 -17 -7 -4 -9 -3 -5 4 3 5 0 13 -6 15 -9 4 -10 6 -1 6 6 1 14 -3 18
-8z m2165 -25 c0 -2 -7 -7 -16 -10 -8 -3 -12 -2 -9 4 6 10 25 14 25 6z m-30
-39 c0 -2 -10 -12 -22 -23 l-23 -19 19 23 c18 21 26 27 26 19z m-2016 -59 c-5
-7 -2 -9 8 -5 11 4 15 0 13 -11 -1 -9 5 -26 14 -37 16 -20 16 -20 -6 -1 -13
10 -20 22 -18 26 3 4 -2 11 -11 14 -13 5 -12 26 2 26 3 0 2 -5 -2 -12z m1784
-150 c-2 -7 2 -12 8 -11 6 1 11 -5 11 -12 0 -10 -4 -12 -12 -5 -7 5 -14 7 -18
4 -4 -5 -3 16 2 34 3 9 11 0 9 -10z m62 -2 c-7 -7 -13 -7 -20 0 -6 6 -3 10 10
10 13 0 16 -4 10 -10z m1100 -1 c-7 -9 -15 -13 -17 -11 -7 7 7 26 19 26 6 0 6
-6 -2 -15z m-2779 -12 c13 -16 12 -17 -3 -4 -17 13 -22 21 -14 21 2 0 10 -8
17 -17z m20 -40 c13 -16 12 -17 -3 -4 -10 7 -18 15 -18 17 0 8 8 3 21 -13z
m1544 -3 c-14 -15 -15 -20 -4 -20 9 -1 8 -4 -4 -11 -14 -8 -22 -8 -30 1 -9 8
-7 9 8 4 11 -4 17 -3 12 1 -6 8 19 45 31 45 3 0 -3 -9 -13 -20z m56 3 c13 -16
12 -17 -3 -4 -17 13 -22 21 -14 21 2 0 10 -8 17 -17z m-24 -18 c0 -8 -4 -12
-9 -9 -5 3 -6 10 -3 15 9 13 12 11 12 -6z m-1552 -5 c-3 -5 -12 -10 -18 -10
-7 0 -6 4 3 10 19 12 23 12 15 0z m1435 -60 c0 -5 -5 -10 -11 -10 -5 0 -7 5
-4 10 3 6 8 10 11 10 2 0 4 -4 4 -10z m-27 -35 c-3 -9 -8 -14 -10 -11 -3 3 -2
9 2 15 9 16 15 13 8 -4z m27 -9 c0 -2 -8 -10 -17 -17 -16 -13 -17 -12 -4 4 13
16 21 21 21 13z m-1922 -50 c-2 0 -14 -10 -27 -21 l-24 -20 18 27 c9 15 21 25
27 22 5 -3 8 -7 6 -8z m678 -42 c1 -9 0 -13 -4 -10 -3 4 -7 14 -8 22 -1 9 0
13 4 10 3 -4 7 -14 8 -22z m1124 12 c0 -2 -8 -10 -17 -17 -16 -13 -17 -12 -4
4 13 16 21 21 21 13z m-40 -20 c0 -2 -8 -10 -17 -17 -16 -13 -17 -12 -4 4 13
16 21 21 21 13z m50 -11 c-7 -8 -17 -15 -23 -15 -6 0 -2 7 9 15 25 19 30 19
14 0z m-52 -35 c-7 -10 -14 -17 -17 -15 -4 4 18 35 25 35 2 0 -1 -9 -8 -20z
m-958 -35 c0 -2 -9 -3 -19 -2 -11 0 -18 5 -15 9 4 6 34 0 34 -7z m941 -12 c13
-16 12 -17 -3 -4 -17 13 -22 21 -14 21 2 0 10 -8 17 -17z m-926 -22 c3 -5 2
-12 -3 -15 -5 -3 -9 1 -9 9 0 17 3 19 12 6z m826 -38 c13 -16 12 -17 -3 -4
-17 13 -22 21 -14 21 2 0 10 -8 17 -17z m-20 -20 c13 -16 12 -17 -3 -4 -17 13
-22 21 -14 21 2 0 10 -8 17 -17z m-25 -18 c-1 -8 -5 -17 -8 -21 -5 -4 -4 16 1
34 3 9 9 -1 7 -13z m-1744 -30 c3 -13 1 -22 -3 -19 -9 5 -13 44 -5 44 2 0 6
-11 8 -25z m1699 -8 c-10 -9 -11 -8 -5 6 3 10 9 15 12 12 3 -3 0 -11 -7 -18z
m-1711 -25 c0 -4 -5 -13 -12 -20 -16 -16 4 -16 21 1 11 10 13 10 7 0 -4 -7 -3
-13 1 -13 5 0 15 6 23 13 12 10 12 9 1 -5 -7 -9 -10 -22 -6 -27 3 -6 1 -19 -4
-28 -6 -11 -11 -13 -11 -5 0 7 -4 11 -9 7 -5 -3 -22 5 -37 18 l-28 24 22 12
c13 7 20 16 17 22 -4 5 -1 9 4 9 6 0 11 -4 11 -8z m1711 -15 c-10 -9 -11 -8
-5 6 3 10 9 15 12 12 3 -3 0 -11 -7 -18z m-68 -44 c3 -5 -6 -9 -20 -10 -19 -1
-22 1 -12 8 17 11 26 11 32 2z m-1568 -23 c3 -6 -1 -7 -9 -4 -18 7 -21 14 -7
14 6 0 13 -4 16 -10z m57 -34 c3 3 9 1 12 -4 8 -14 -18 -9 -36 6 -8 6 -19 8
-23 4 -5 -4 -5 -1 -1 6 7 11 11 10 25 -2 10 -9 20 -13 23 -10z m1421 -61 c-3
-9 -8 -14 -10 -11 -3 3 -2 9 2 15 9 16 15 13 8 -4z m-208 -5 c-3 -5 -12 -10
-18 -10 -7 0 -6 4 3 10 19 12 23 12 15 0z m152 -25 c0 -8 -4 -12 -9 -9 -5 3
-6 10 -3 15 9 13 12 11 12 -6z m-1261 -15 c0 -12 -4 -16 -9 -11 -5 5 -6 14 -3
20 10 15 12 14 12 -9z m1138 2 c3 -5 -1 -9 -9 -9 -8 0 -12 4 -9 9 3 4 7 8 9 8
2 0 6 -4 9 -8z m46 -21 c0 -6 -4 -12 -8 -15 -5 -3 -9 1 -9 9 0 8 4 15 9 15 4
0 8 -4 8 -9z m-1120 -35 c8 -11 10 -17 3 -13 -6 4 -13 1 -16 -5 -2 -7 -4 0 -4
15 0 15 0 27 1 25 1 -2 8 -12 16 -22z m1145 14 c-3 -5 -12 -10 -18 -10 -7 0
-6 4 3 10 19 12 23 12 15 0z m-1128 -54 c0 -8 -6 -12 -15 -9 -11 5 -11 7 0 14
7 5 13 9 14 9 0 0 1 -6 1 -14z m-37 -18 c0 -19 2 -20 10 -8 7 11 10 11 10 2 0
-7 5 -10 10 -7 6 3 10 1 10 -4 0 -6 5 -11 11 -11 6 0 8 7 4 18 -5 14 -4 15 7
4 11 -11 9 -16 -11 -32 -24 -18 -25 -18 -45 8 -22 28 -29 52 -15 52 5 0 9 -10
9 -22z m160 -84 c0 -8 -19 -13 -24 -6 -3 5 1 9 9 9 8 0 15 -2 15 -3z m0 -33
c-5 -11 -15 -23 -22 -27 -7 -5 -8 -2 -3 7 21 37 44 55 25 20z m73 -58 c-13 -2
-23 -9 -23 -14 0 -6 4 -7 10 -4 6 4 7 -1 3 -11 -4 -11 -3 -15 5 -10 6 3 16 -2
22 -13 6 -11 16 -18 24 -15 7 3 16 -1 19 -9 3 -7 -1 -14 -9 -14 -7 0 -11 4 -8
9 3 4 3 8 0 8 -3 0 -8 -4 -11 -10 -3 -5 10 -16 30 -24 40 -17 54 -41 35 -59
-10 -9 -11 -9 -6 1 4 7 0 15 -11 19 -10 4 -23 14 -30 22 -7 9 -13 12 -13 7 0
-5 -12 9 -26 30 -30 44 -44 55 -57 47 -5 -3 -1 6 8 21 11 16 26 25 39 25 20
-2 20 -2 -1 -6z m53 -35 c4 -7 3 -8 -4 -4 -7 4 -12 2 -12 -5 0 -7 -3 -10 -6
-6 -6 5 3 27 11 27 2 0 7 -5 11 -12z m44 -58 c0 -5 -4 -10 -10 -10 -5 0 -10 5
-10 10 0 6 5 10 10 10 6 0 10 -4 10 -10z m55 -40 c16 -17 16 -20 3 -15 -9 4
-19 13 -22 21 -7 19 -2 18 19 -6z m-13 -24 c6 4 6 -2 -1 -14 -6 -12 -17 -24
-24 -28 -9 -6 -9 -4 1 8 7 8 11 22 9 29 -2 8 -2 11 0 6 3 -4 9 -4 15 -1z m36
-31 c-3 -3 -9 2 -12 12 -6 14 -5 15 5 6 7 -7 10 -15 7 -18z m27 -40 c1 -23 -2
-35 -11 -35 -17 0 -27 17 -14 25 6 4 8 10 5 15 -6 10 5 43 13 35 3 -3 6 -21 7
-40z m54 -5 c-6 -5 -18 -6 -26 -3 -19 8 -16 11 13 11 17 0 22 -3 13 -8z m51
-40 c0 -5 -2 -10 -4 -10 -3 0 -8 5 -11 10 -3 6 -1 10 4 10 6 0 11 -4 11 -10z
m-23 -67 c0 -14 -1 -14 -12 1 -7 8 -16 12 -20 8 -5 -4 -5 -2 -1 5 9 16 33 6
33 -14z m193 -118 c7 -9 8 -15 2 -15 -5 0 -12 7 -16 15 -3 8 -4 15 -2 15 2 0
9 -7 16 -15z m-18 -22 c10 -16 18 -21 18 -13 0 10 5 7 15 -7 10 -14 22 -20 33
-17 14 5 14 4 2 -4 -8 -6 -18 -8 -22 -6 -10 6 -11 -10 -1 -19 3 -4 11 -3 17 2
6 5 20 5 31 0 18 -9 18 -9 -2 -5 -13 2 -26 0 -29 -5 -5 -9 16 -13 44 -10 14 2
15 -8 2 -29 -8 -12 -12 -11 -32 6 -13 12 -28 20 -35 17 -12 -4 -35 29 -31 44
1 4 -4 18 -11 31 -10 19 -15 21 -27 11 -8 -6 -17 -9 -21 -5 -3 3 -1 6 5 6 7 0
11 3 11 8 -5 31 12 29 33 -5z m161 -150 c-6 -16 -5 -17 12 -3 11 9 16 10 11 3
-4 -7 -3 -13 3 -13 16 0 44 -48 35 -61 -5 -9 -11 -7 -21 7 -8 10 -16 18 -18
17 -3 -2 -4 -1 -2 1 6 9 -38 46 -50 42 -7 -3 -13 -3 -13 0 0 3 29 18 47 23 1
1 -1 -7 -4 -16z m81 -33 c-6 -6 -10 -3 -10 10 0 13 4 16 10 10 7 -7 7 -13 0
-20z m40 -31 c3 -3 -6 -6 -19 -7 -14 -1 -25 2 -25 6 0 9 36 9 44 1z m-14 -30
c0 -6 -4 -7 -10 -4 -5 3 -10 0 -10 -7 0 -9 -3 -9 -10 2 -7 11 -10 11 -10 2 0
-7 -5 -10 -11 -6 -8 4 -8 8 0 13 17 11 51 11 51 0z"/>
<path d="M1840 4405 c-7 -9 -8 -15 -2 -15 5 0 12 7 16 15 3 8 4 15 2 15 -2 0
-9 -7 -16 -15z"/>
<path d="M2474 2840 c3 -26 23 -53 30 -42 3 5 -3 21 -13 33 -12 15 -19 18 -17
9z"/>
<path d="M2337 2773 c-10 -10 -8 -23 4 -23 5 0 8 4 5 9 -4 5 0 12 6 14 7 3 8
6 2 6 -6 1 -14 -2 -17 -6z"/>
<path d="M2366 2761 c-3 -5 1 -11 9 -14 9 -4 12 -1 8 9 -6 16 -10 17 -17 5z"/>
<path d="M2320 2731 c0 -6 4 -13 10 -16 6 -3 7 1 4 9 -7 18 -14 21 -14 7z"/>
<path d="M2390 2715 c0 -8 2 -15 4 -15 2 0 6 7 10 15 3 8 1 15 -4 15 -6 0 -10
-7 -10 -15z"/>
<path d="M2333 2686 c0 -8 5 -14 11 -13 6 1 10 -3 9 -10 -2 -7 4 -10 13 -6 8
3 14 6 12 7 -2 1 -12 9 -24 19 -17 14 -21 14 -21 3z"/>
<path d="M2270 2683 c0 -6 8 -17 18 -24 16 -13 16 -13 2 6 -8 11 -16 22 -17
24 -2 2 -3 0 -3 -6z"/>
<path d="M2430 2679 c0 -5 5 -7 10 -4 6 3 10 8 10 11 0 2 -4 4 -10 4 -5 0 -10
-5 -10 -11z"/>
<path d="M2131 2656 c-8 -9 -8 -16 -2 -20 5 -4 12 -2 16 4 3 5 11 10 17 10 6
0 6 -6 -2 -15 -11 -13 -10 -14 3 -9 8 3 18 13 22 22 3 9 3 13 -1 10 -4 -4 -15
-3 -24 2 -13 7 -21 5 -29 -4z"/>
<path d="M2200 2639 c-7 -11 -9 -23 -7 -26 3 -2 8 5 12 16 3 12 11 18 17 15 7
-4 8 -2 4 4 -10 16 -14 15 -26 -9z"/>
<path d="M2223 2602 c12 -13 14 -22 7 -25 -6 -3 -6 -5 2 -3 21 4 19 21 -4 35
-23 14 -23 13 -5 -7z"/>
<path d="M2296 2609 c3 -5 12 -9 20 -9 8 0 12 -5 9 -10 -4 -6 -10 -8 -15 -5
-13 8 -21 -26 -9 -41 8 -10 8 -14 0 -14 -6 0 -11 -5 -11 -11 0 -8 5 -7 15 1 9
7 13 15 10 18 -3 3 12 23 32 44 21 22 30 36 21 33 -10 -4 -18 -12 -18 -19 0
-8 -2 -8 -8 0 -9 13 -54 26 -46 13z m29 -39 c-10 -11 -21 -18 -23 -15 -3 3 3
12 14 20 27 20 30 18 9 -5z"/>
<path d="M2236 2555 c-11 -8 -15 -15 -9 -15 6 0 16 7 23 15 16 19 11 19 -14 0z"/>
<path d="M2467 2759 c7 -7 15 -10 18 -7 3 3 -2 9 -12 12 -14 6 -15 5 -6 -5z"/>
<path d="M1008 2517 c12 -13 19 -27 15 -32 -5 -4 -2 -5 4 -1 10 5 9 13 -3 32
-9 13 -21 24 -27 24 -6 0 -1 -10 11 -23z"/>
<path d="M1105 2401 c-6 -11 13 -26 22 -17 4 3 1 6 -6 6 -7 0 -9 5 -6 10 3 6
4 10 1 10 -3 0 -7 -4 -11 -9z"/>
<path d="M860 1518 c0 -4 7 -8 15 -8 8 0 15 -4 15 -8 0 -5 7 -9 15 -9 18 0 20
13 3 23 -18 11 -48 12 -48 2z"/>
<path d="M1187 1199 c7 -7 15 -10 18 -7 3 3 -2 9 -12 12 -14 6 -15 5 -6 -5z"/>
<path d="M1400 1003 c0 -6 8 -17 18 -24 16 -13 16 -13 2 6 -8 11 -16 22 -17
24 -2 2 -3 0 -3 -6z"/>
<path d="M1460 936 c0 -3 9 -10 20 -16 11 -6 20 -8 20 -6 0 3 -9 10 -20 16
-11 6 -20 8 -20 6z"/>
<path d="M1883 529 c-2 -23 3 -25 10 -4 4 8 3 16 -1 19 -4 3 -9 -4 -9 -15z"/>
<path d="M1946 468 c3 -5 10 -6 15 -3 13 9 11 12 -6 12 -8 0 -12 -4 -9 -9z"/>
<path d="M2037 398 c7 -8 9 -19 5 -23 -4 -5 -2 -5 5 -1 6 3 17 -2 23 -11 11
-17 11 -17 6 0 -3 10 -6 20 -6 22 0 3 -10 10 -22 16 -20 11 -21 10 -11 -3z"/>
<path d="M2395 4941 c-3 -5 -2 -12 3 -15 5 -3 9 1 9 9 0 17 -3 19 -12 6z"/>
<path d="M2334 4914 c4 -11 2 -15 -7 -11 -8 3 -14 -1 -14 -8 0 -10 5 -11 18
-4 16 8 17 39 2 39 -3 0 -2 -7 1 -16z"/>
<path d="M2360 4926 c0 -2 8 -10 18 -17 15 -13 16 -12 3 4 -13 16 -21 21 -21
13z"/>
<path d="M2225 4839 c-4 -6 -5 -12 -2 -15 2 -3 7 2 10 11 7 17 1 20 -8 4z"/>
<path d="M2176 4813 c-6 -14 -5 -15 5 -6 7 7 10 15 7 18 -3 3 -9 -2 -12 -12z"/>
<path d="M2206 4783 c-6 -14 -5 -15 5 -6 7 7 10 15 7 18 -3 3 -9 -2 -12 -12z"/>
<path d="M1977 4606 c3 -15 9 -29 14 -32 5 -3 9 -10 9 -15 0 -5 -10 -3 -23 6
-21 14 -24 14 -24 0 0 -9 6 -14 14 -11 8 3 16 -1 19 -9 4 -8 11 -15 17 -15 6
0 7 3 4 6 -3 4 -2 15 4 25 7 14 7 19 -2 17 -7 -2 -15 6 -17 17 -2 11 -7 24
-12 28 -4 5 -5 -3 -3 -17z"/>
<path d="M1930 4541 c0 -6 5 -11 10 -11 6 0 10 -6 10 -13 0 -8 6 -14 13 -14 7
0 13 8 13 18 0 10 -4 15 -9 12 -4 -2 -14 1 -22 7 -11 9 -15 9 -15 1z"/>
<path d="M1836 4498 c3 -5 10 -6 15 -3 13 9 11 12 -6 12 -8 0 -12 -4 -9 -9z"/>
<path d="M1828 4453 c7 -3 16 -2 19 1 4 3 -2 6 -13 5 -11 0 -14 -3 -6 -6z"/>
<path d="M1793 4425 c0 -8 4 -12 9 -9 5 3 6 10 3 15 -9 13 -12 11 -12 -6z"/>
<path d="M1756 4407 c3 -10 9 -15 12 -12 3 3 0 11 -7 18 -10 9 -11 8 -5 -6z"/>
<path d="M1695 4400 c-3 -5 -1 -10 4 -10 6 0 11 5 11 10 0 6 -2 10 -4 10 -3 0
-8 -4 -11 -10z"/>
<path d="M1740 4371 c0 -6 4 -13 10 -16 6 -3 7 1 4 9 -7 18 -14 21 -14 7z"/>
<path d="M1669 4323 c-13 -16 -12 -17 4 -4 9 7 17 15 17 17 0 8 -8 3 -21 -13z"/>
<path d="M1663 4288 c3 -9 1 -19 -6 -22 -9 -3 -9 -5 0 -5 18 -1 23 13 11 29
-8 12 -9 12 -5 -2z"/>
<path d="M1626 4278 c3 -5 10 -6 15 -3 13 9 11 12 -6 12 -8 0 -12 -4 -9 -9z"/>
<path d="M1619 4255 c-1 -3 -2 -11 -3 -17 -1 -7 -8 -12 -15 -10 -7 1 -10 -2
-6 -7 3 -6 13 -7 22 -4 12 5 14 3 8 -7 -6 -10 -4 -11 6 -4 8 5 17 9 22 9 4 0
7 3 7 8 0 4 0 12 0 17 0 6 -5 10 -11 10 -5 0 -8 -4 -4 -9 3 -5 1 -12 -5 -16
-9 -6 -14 7 -11 28 1 8 -8 10 -10 2z"/>
<path d="M1550 4191 c14 -11 29 -21 34 -21 5 0 2 -8 -5 -17 -7 -10 -1 -7 14 7
26 23 27 25 11 37 -10 7 -23 13 -28 12 -6 0 -5 -3 2 -6 6 -2 10 -9 7 -14 -4
-5 -18 -2 -33 7 l-27 16 25 -21z m60 -5 c0 -3 -4 -8 -10 -11 -5 -3 -10 -1 -10
4 0 6 5 11 10 11 6 0 10 -2 10 -4z"/>
<path d="M1480 4115 c-11 -13 -10 -14 4 -9 9 3 16 10 16 15 0 13 -6 11 -20 -6z"/>
<path d="M1375 4061 c-3 -5 -2 -12 3 -15 5 -3 9 1 9 9 0 17 -3 19 -12 6z"/>
<path d="M1315 4001 c-3 -5 -2 -12 3 -15 5 -3 9 1 9 9 0 17 -3 19 -12 6z"/>
<path d="M1260 3915 c0 -8 -6 -12 -14 -9 -8 3 -16 1 -20 -4 -3 -5 5 -8 17 -7
18 1 40 35 23 35 -3 0 -6 -7 -6 -15z"/>
<path d="M1103 3761 c0 -11 5 -18 9 -15 4 3 5 11 1 19 -7 21 -12 19 -10 -4z"/>
<path d="M1025 3720 c-3 -6 1 -7 9 -4 18 7 21 14 7 14 -6 0 -13 -4 -16 -10z"/>
<path d="M991 3667 c-8 -10 -7 -14 4 -14 8 0 12 4 9 8 -2 4 2 10 8 12 8 4 9 6
2 6 -6 1 -17 -5 -23 -12z"/>
<path d="M920 3600 c8 -5 20 -10 25 -10 6 0 3 5 -5 10 -8 5 -19 10 -25 10 -5
0 -3 -5 5 -10z"/>
<path d="M863 3507 c0 -21 3 -33 7 -26 6 8 9 8 12 -1 3 -9 8 -7 18 5 12 15 12
16 -5 13 -13 -2 -21 5 -26 22 -6 21 -7 18 -6 -13z"/>
<path d="M790 3506 c0 -2 7 -7 16 -10 8 -3 12 -2 9 4 -6 10 -25 14 -25 6z"/>
<path d="M770 3440 c0 -5 5 -10 10 -10 6 0 10 5 10 10 0 6 -4 10 -10 10 -5 0
-10 -4 -10 -10z"/>
<path d="M735 3410 c6 -10 3 -12 -13 -8 -12 4 -24 3 -26 -1 -3 -4 6 -8 19 -9
27 -2 42 13 24 24 -8 5 -9 3 -4 -6z"/>
<path d="M660 3380 c-9 -6 -10 -10 -3 -10 6 0 15 5 18 10 8 12 4 12 -15 0z"/>
<path d="M610 3340 c0 -5 5 -10 11 -10 5 0 7 5 4 10 -3 6 -8 10 -11 10 -2 0
-4 -4 -4 -10z"/>
<path d="M565 3260 c-16 -7 -17 -9 -3 -9 9 -1 20 4 23 9 7 11 7 11 -20 0z"/>
<path d="M599 3253 c-1 -5 -1 -12 0 -17 1 -5 -5 -6 -13 -3 -10 4 -13 1 -9 -9
3 -9 0 -13 -8 -11 -8 2 -11 2 -6 0 4 -3 7 -9 7 -14 0 -6 -5 -7 -12 -3 -7 5 -8
3 -3 -6 6 -10 11 -9 22 6 8 10 17 18 21 16 3 -1 7 9 8 23 1 23 -4 36 -7 18z"/>
<path d="M493 3215 c0 -8 4 -12 9 -9 5 3 6 10 3 15 -9 13 -12 11 -12 -6z"/>
<path d="M526 3205 c-3 -8 -1 -15 4 -15 6 0 10 7 10 15 0 8 -2 15 -4 15 -2 0
-6 -7 -10 -15z"/>
<path d="M470 3185 c0 -7 30 -13 34 -7 3 4 -4 9 -15 9 -10 1 -19 0 -19 -2z"/>
<path d="M473 3163 c4 -3 1 -13 -6 -22 -11 -14 -10 -14 5 -2 16 12 16 31 1 31
-4 0 -3 -3 0 -7z"/>
<path d="M516 3121 c-4 -6 -14 -8 -24 -4 -10 3 -8 -1 6 -12 13 -9 26 -14 29
-11 4 3 0 6 -8 6 -12 0 -12 2 1 10 8 5 12 12 8 15 -3 4 -9 2 -12 -4z"/>
<path d="M525 3040 c3 -5 8 -10 11 -10 2 0 4 5 4 10 0 6 -5 10 -11 10 -5 0 -7
-4 -4 -10z"/>
<path d="M475 3010 c-3 -5 -1 -10 4 -10 6 0 11 5 11 10 0 6 -2 10 -4 10 -3 0
-8 -4 -11 -10z"/>
<path d="M436 2998 c3 -5 10 -6 15 -3 13 9 11 12 -6 12 -8 0 -12 -4 -9 -9z"/>
<path d="M516 3002 c-4 -7 -2 -12 4 -12 6 0 8 -5 4 -12 -5 -9 -2 -9 9 1 10 8
17 9 17 3 0 -6 -8 -16 -17 -21 -10 -6 -13 -11 -7 -11 5 0 15 5 22 12 16 16 15
-2 -1 -23 -7 -9 -19 -14 -27 -11 -16 5 -15 4 13 -18 10 -7 17 -9 16 -4 -3 18
1 34 9 33 20 -3 21 3 8 30 -9 16 -12 32 -8 37 4 5 0 3 -10 -4 -13 -10 -17 -10
-20 0 -3 9 -6 9 -12 0z"/>
<path d="M496 2977 c3 -10 9 -15 12 -12 3 3 0 11 -7 18 -10 9 -11 8 -5 -6z"/>
<path d="M572 2916 c-3 -5 0 -12 6 -14 20 -6 63 -44 58 -50 -3 -3 -16 3 -28
14 l-23 19 20 -24 c11 -13 18 -25 15 -26 -3 -2 -1 -7 4 -12 5 -4 6 -3 3 3 -4
7 0 14 8 18 8 3 15 0 15 -7 0 -8 4 -7 9 3 6 8 7 18 5 22 -3 4 2 5 10 2 9 -3
16 -1 16 6 0 6 -4 9 -8 6 -5 -3 -20 8 -35 24 -27 28 -62 36 -75 16z m66 -19
c10 -9 19 -24 19 -32 0 -11 -9 -8 -31 12 -17 15 -35 31 -39 34 -4 3 1 5 12 4
11 -1 29 -9 39 -18z"/>
<path d="M625 2890 c10 -11 20 -20 23 -20 3 0 -3 9 -13 20 -10 11 -20 20 -23
20 -3 0 3 -9 13 -20z"/>
<path d="M560 2860 c8 -5 20 -10 25 -10 6 0 3 5 -5 10 -8 5 -19 10 -25 10 -5
0 -3 -5 5 -10z"/>
<path d="M670 2834 c0 -11 6 -14 18 -10 15 5 15 4 -2 -8 -18 -15 -14 -37 7
-35 9 0 8 2 -1 6 -6 2 -9 9 -6 14 4 6 11 6 19 -1 18 -15 15 11 -4 34 -17 20
-31 20 -31 0z"/>
<path d="M635 2810 c-3 -6 1 -7 9 -4 18 7 21 14 7 14 -6 0 -13 -4 -16 -10z"/>
<path d="M763 2769 c18 -10 18 -12 -3 -31 -12 -11 -19 -22 -17 -25 3 -2 17 7
32 21 26 24 26 25 6 35 -26 14 -42 14 -18 0z"/>
<path d="M750 2686 c0 -2 7 -7 16 -10 8 -3 12 -2 9 4 -6 10 -25 14 -25 6z"/>
<path d="M843 2663 c-7 -2 -13 -12 -13 -20 0 -9 6 -13 15 -9 8 3 19 -2 24 -12
9 -16 11 -16 27 0 16 16 16 16 -2 14 -22 -4 -46 12 -38 25 6 10 5 10 -13 2z"/>
<path d="M4788 2623 c6 -2 9 -10 6 -15 -4 -7 -2 -8 5 -4 13 9 5 26 -12 25 -9
0 -8 -2 1 -6z"/>
<path d="M830 2561 c0 -6 4 -13 10 -16 6 -3 7 1 4 9 -7 18 -14 21 -14 7z"/>
<path d="M915 2530 c3 -5 8 -10 11 -10 2 0 4 5 4 10 0 6 -5 10 -11 10 -5 0 -7
-4 -4 -10z"/>
<path d="M915 2480 c3 -5 8 -10 11 -10 2 0 4 5 4 10 0 6 -5 10 -11 10 -5 0 -7
-4 -4 -10z"/>
<path d="M4656 2447 c3 -10 9 -15 12 -12 3 3 0 11 -7 18 -10 9 -11 8 -5 -6z"/>
<path d="M990 2440 c0 -5 5 -10 11 -10 5 0 7 5 4 10 -3 6 -8 10 -11 10 -2 0
-4 -4 -4 -10z"/>
<path d="M1050 2409 c0 -5 -4 -8 -9 -4 -5 3 -12 1 -15 -4 -4 -5 2 -8 11 -7 15
3 33 26 19 26 -3 0 -6 -5 -6 -11z"/>
<path d="M4550 2380 c0 -5 5 -10 10 -10 6 0 10 5 10 10 0 6 -4 10 -10 10 -5 0
-10 -4 -10 -10z"/>
<path d="M4526 2362 c-3 -5 1 -9 9 -9 8 0 12 4 9 9 -3 4 -7 8 -9 8 -2 0 -6 -4
-9 -8z"/>
<path d="M1106 2318 c3 -4 9 -8 15 -8 5 0 9 4 9 8 0 5 -7 9 -15 9 -8 0 -12 -4
-9 -9z"/>
<path d="M1135 2300 c-3 -5 -1 -10 4 -10 6 0 11 5 11 10 0 6 -2 10 -4 10 -3 0
-8 -4 -11 -10z"/>
<path d="M1250 2251 c0 -12 -4 -21 -10 -21 -5 0 -10 -5 -10 -11 0 -8 6 -7 17
2 15 12 16 12 10 -3 -4 -12 -2 -15 8 -12 10 4 13 -1 9 -21 -4 -24 -2 -26 18
-19 20 6 21 5 9 -10 -10 -12 -11 -19 -2 -30 7 -8 8 -16 4 -19 -11 -5 -43 30
-35 39 4 4 1 4 -6 0 -11 -6 -9 -13 8 -28 12 -11 18 -23 14 -27 -4 -3 -9 0 -11
7 -3 6 -9 12 -15 12 -6 0 -6 -6 2 -15 6 -8 8 -20 4 -27 -4 -7 9 2 28 20 19 18
38 29 43 25 5 -5 4 -1 -3 8 -10 13 -9 19 2 29 13 10 11 15 -11 38 -15 15 -30
27 -33 27 -15 1 -31 19 -26 31 3 7 1 16 -4 19 -6 4 -10 -3 -10 -14z m70 -101
c-7 -4 -9 -13 -5 -21 6 -11 5 -11 -5 -2 -10 10 -11 15 -1 27 10 11 8 17 -8 28
-12 8 -18 18 -15 21 4 4 16 -5 27 -19 15 -20 17 -28 7 -34z"/>
<path d="M4430 2250 c-8 -5 -12 -12 -9 -15 4 -3 12 1 19 10 14 17 11 19 -10 5z"/>
<path d="M4396 2213 c-6 -14 -5 -15 5 -6 7 7 10 15 7 18 -3 3 -9 -2 -12 -12z"/>
<path d="M4355 2189 c-4 -6 -4 -13 -1 -16 3 -4 6 -1 6 6 0 7 5 9 12 5 7 -4 8
-3 4 4 -9 15 -13 15 -21 1z"/>
<path d="M1243 2175 c-3 -9 -3 -18 -1 -21 3 -3 8 4 11 16 6 23 -1 27 -10 5z"/>
<path d="M4326 2153 c-6 -14 -5 -15 5 -6 7 7 10 15 7 18 -3 3 -9 -2 -12 -12z"/>
<path d="M4306 2122 c-3 -5 1 -9 9 -9 8 0 15 4 15 9 0 4 -4 8 -9 8 -6 0 -12
-4 -15 -8z"/>
<path d="M1175 2111 c-3 -5 -2 -12 3 -15 5 -3 9 1 9 9 0 17 -3 19 -12 6z"/>
<path d="M1205 2080 c-2 -3 7 -6 21 -6 13 0 24 3 24 7 0 9 -40 8 -45 -1z"/>
<path d="M4235 2040 c3 -5 8 -10 11 -10 2 0 4 5 4 10 0 6 -5 10 -11 10 -5 0
-7 -4 -4 -10z"/>
<path d="M1095 2020 c3 -5 8 -10 11 -10 2 0 4 5 4 10 0 6 -5 10 -11 10 -5 0
-7 -4 -4 -10z"/>
<path d="M1193 2005 c0 -8 4 -15 9 -15 4 0 8 4 8 9 0 6 -4 12 -8 15 -5 3 -9
-1 -9 -9z"/>
<path d="M4176 2011 c-4 -5 -2 -12 3 -15 5 -4 12 -2 15 3 4 5 2 12 -3 15 -5 4
-12 2 -15 -3z"/>
<path d="M1120 1995 c-7 -9 -8 -15 -2 -15 5 0 12 7 16 15 3 8 4 15 2 15 -2 0
-9 -7 -16 -15z"/>
<path d="M4156 1982 c-3 -4 4 -9 15 -9 23 -2 25 3 4 10 -8 4 -16 3 -19 -1z"/>
<path d="M1070 1940 c0 -5 5 -10 10 -10 6 0 10 5 10 10 0 6 -4 10 -10 10 -5 0
-10 -4 -10 -10z"/>
<path d="M1015 1920 c3 -5 8 -10 11 -10 2 0 4 5 4 10 0 6 -5 10 -11 10 -5 0
-7 -4 -4 -10z"/>
<path d="M4085 1920 c-3 -6 1 -7 9 -4 18 7 21 14 7 14 -6 0 -13 -4 -16 -10z"/>
<path d="M4095 1900 c-3 -6 1 -7 9 -4 18 7 21 14 7 14 -6 0 -13 -4 -16 -10z"/>
<path d="M976 1882 c-3 -5 1 -9 9 -9 8 0 12 4 9 9 -3 4 -7 8 -9 8 -2 0 -6 -4
-9 -8z"/>
<path d="M946 1822 c-2 -4 4 -8 15 -8 10 0 19 4 19 8 0 4 -6 8 -14 8 -8 0 -17
-4 -20 -8z"/>
<path d="M3959 1793 c-13 -16 -12 -17 4 -4 9 7 17 15 17 17 0 8 -8 3 -21 -13z"/>
<path d="M3975 1780 c-3 -6 1 -7 9 -4 18 7 21 14 7 14 -6 0 -13 -4 -16 -10z"/>
<path d="M3936 1762 c-2 -4 0 -14 6 -22 8 -12 9 -11 4 4 -5 14 -2 17 9 12 9
-3 13 -2 10 4 -7 12 -22 13 -29 2z"/>
<path d="M878 1743 c7 -3 16 -2 19 1 4 3 -2 6 -13 5 -11 0 -14 -3 -6 -6z"/>
<path d="M3910 1711 c0 -6 4 -13 10 -16 6 -3 7 1 4 9 -7 18 -14 21 -14 7z"/>
<path d="M821 1695 c0 -5 3 -16 8 -23 7 -11 9 -10 14 3 4 9 3 14 -2 10 -5 -3
-12 1 -14 7 -3 7 -6 9 -6 3z"/>
<path d="M860 1679 c0 -5 5 -7 10 -4 6 3 10 8 10 11 0 2 -4 4 -10 4 -5 0 -10
-5 -10 -11z"/>
<path d="M3845 1681 c-3 -5 -2 -12 3 -15 5 -3 9 1 9 9 0 17 -3 19 -12 6z"/>
<path d="M3850 1639 c0 -5 5 -7 10 -4 6 3 10 8 10 11 0 2 -4 4 -10 4 -5 0 -10
-5 -10 -11z"/>
<path d="M3800 1630 c-8 -5 -10 -10 -5 -10 6 0 17 5 25 10 8 5 11 10 5 10 -5
0 -17 -5 -25 -10z"/>
<path d="M3760 1575 c-7 -9 -11 -17 -9 -20 3 -2 10 5 17 15 14 24 10 26 -8 5z"/>
<path d="M775 1540 c3 -5 8 -10 11 -10 2 0 4 5 4 10 0 6 -5 10 -11 10 -5 0 -7
-4 -4 -10z"/>
<path d="M830 1479 c0 -5 5 -7 10 -4 6 3 10 8 10 11 0 2 -4 4 -10 4 -5 0 -10
-5 -10 -11z"/>
<path d="M3670 1482 c0 -5 7 -9 15 -9 8 0 12 4 9 9 -3 4 -9 8 -15 8 -5 0 -9
-4 -9 -8z"/>
<path d="M850 1459 c0 -5 5 -7 10 -4 6 3 10 8 10 11 0 2 -4 4 -10 4 -5 0 -10
-5 -10 -11z"/>
<path d="M869 1443 c-13 -16 -12 -17 4 -4 14 11 20 11 34 0 13 -11 17 -11 20
-1 8 22 22 3 17 -23 -3 -17 0 -25 10 -25 7 0 19 -7 26 -15 15 -18 0 -20 -20
-2 -12 10 -12 9 0 -6 7 -10 19 -16 27 -13 8 3 18 -5 25 -19 6 -14 15 -25 20
-25 5 0 7 -4 4 -8 -9 -15 33 -11 45 4 10 13 4 23 -41 64 -30 27 -56 47 -58 45
-3 -2 -14 7 -24 21 -15 19 -23 22 -33 14 -9 -8 -15 -8 -20 0 -9 15 -21 12 -36
-7z m166 -84 c27 -27 42 -50 36 -53 -6 -4 -34 18 -64 48 -34 35 -46 54 -35 53
9 -1 38 -22 63 -48z"/>
<path d="M995 1380 c10 -11 20 -20 23 -20 3 0 -3 9 -13 20 -10 11 -20 20 -23
20 -3 0 3 -9 13 -20z"/>
<path d="M1031 1337 c2 -1 13 -9 24 -17 19 -14 19 -14 6 3 -7 9 -18 17 -24 17
-6 0 -8 -1 -6 -3z"/>
<path d="M914 1405 c3 -23 12 -26 13 -5 1 11 -2 20 -7 20 -4 0 -7 -7 -6 -15z"/>
<path d="M3595 1400 c3 -5 8 -10 11 -10 2 0 4 5 4 10 0 6 -5 10 -11 10 -5 0
-7 -4 -4 -10z"/>
<path d="M3511 1337 c-6 -6 -11 -16 -11 -21 0 -6 5 -3 11 6 5 10 16 15 24 12
8 -4 15 -4 15 -1 0 11 -28 15 -39 4z"/>
<path d="M1105 1290 c-3 -5 -4 -10 0 -10 3 0 1 -9 -4 -19 -9 -16 -8 -18 9 -14
22 6 26 18 10 28 -6 4 -8 11 -5 16 4 5 4 9 1 9 -3 0 -8 -4 -11 -10z"/>
<path d="M3456 1281 c-3 -5 1 -11 9 -14 9 -4 12 -1 8 9 -6 16 -10 17 -17 5z"/>
<path d="M3426 1252 c-3 -5 1 -9 9 -9 8 0 15 4 15 9 0 4 -4 8 -9 8 -6 0 -12
-4 -15 -8z"/>
<path d="M1060 1239 c0 -5 5 -7 10 -4 6 3 10 8 10 11 0 2 -4 4 -10 4 -5 0 -10
-5 -10 -11z"/>
<path d="M3415 1220 c3 -5 8 -10 11 -10 2 0 4 5 4 10 0 6 -5 10 -11 10 -5 0
-7 -4 -4 -10z"/>
<path d="M3384 1209 c-4 -7 -3 -9 4 -5 5 3 13 0 15 -6 4 -9 6 -10 6 -1 1 17
-16 25 -25 12z"/>
<path d="M1090 1186 c0 -2 7 -7 16 -10 8 -3 12 -2 9 4 -6 10 -25 14 -25 6z"/>
<path d="M1156 1165 c4 -8 8 -15 10 -15 2 0 4 7 4 15 0 8 -4 15 -10 15 -5 0
-7 -7 -4 -15z"/>
<path d="M3296 1121 c-41 -41 -54 -61 -45 -66 8 -6 10 -4 4 5 -6 9 -1 10 16 5
17 -4 20 -3 10 3 -16 11 -5 36 11 26 7 -5 8 -2 3 6 -6 10 -4 12 8 7 12 -4 14
-2 10 11 -6 15 -5 16 13 2 17 -13 18 -13 7 1 -10 12 -9 18 6 31 13 11 22 13
29 6 6 -6 12 -5 17 4 5 7 5 10 0 6 -4 -4 -13 -4 -20 2 -8 6 -29 -9 -69 -49z"/>
<path d="M3220 1026 c7 -7 13 -7 20 0 6 6 3 10 -10 10 -13 0 -16 -4 -10 -10z"/>
<path d="M3200 1011 c0 -7 -4 -9 -10 -6 -5 3 -10 1 -10 -4 0 -6 4 -11 9 -11
13 0 25 20 17 27 -3 4 -6 1 -6 -6z"/>
<path d="M3166 977 c3 -10 9 -15 12 -12 3 3 0 11 -7 18 -10 9 -11 8 -5 -6z"/>
<path d="M3125 949 c-4 -6 -5 -12 -2 -15 2 -3 7 2 10 11 7 17 1 20 -8 4z"/>
<path d="M3096 873 c-6 -14 -5 -15 5 -6 7 7 10 15 7 18 -3 3 -9 -2 -12 -12z"/>
<path d="M2997 812 c-10 -10 -17 -23 -17 -28 0 -4 7 2 16 14 8 12 20 20 25 17
5 -4 9 -1 9 4 0 17 -15 13 -33 -7z"/>
<path d="M1533 771 c0 -11 5 -18 9 -15 4 3 5 11 1 19 -7 21 -12 19 -10 -4z"/>
<path d="M2935 711 c-3 -5 -2 -12 3 -15 5 -3 9 1 9 9 0 17 -3 19 -12 6z"/>
<path d="M1634 696 c1 -8 5 -18 8 -22 4 -3 5 1 4 10 -1 8 -5 18 -8 22 -4 3 -5
-1 -4 -10z"/>
<path d="M1674 656 c1 -8 5 -18 8 -22 4 -3 5 1 4 10 -1 8 -5 18 -8 22 -4 3 -5
-1 -4 -10z"/>
<path d="M2833 630 c-1 -11 2 -20 7 -20 4 0 7 7 6 15 -3 23 -12 26 -13 5z"/>
<path d="M1710 600 c0 -5 9 -8 20 -7 21 1 18 10 -5 13 -8 1 -15 -2 -15 -6z"/>
<path d="M1755 580 c-3 -5 -1 -10 4 -10 6 0 11 5 11 10 0 6 -2 10 -4 10 -3 0
-8 -4 -11 -10z"/>
<path d="M2765 560 c-3 -6 1 -7 9 -4 18 7 21 14 7 14 -6 0 -13 -4 -16 -10z"/>
<path d="M1795 520 c3 -5 8 -10 11 -10 2 0 4 5 4 10 0 6 -5 10 -11 10 -5 0 -7
-4 -4 -10z"/>
<path d="M2707 519 c7 -7 15 -10 18 -7 3 3 -2 9 -12 12 -14 6 -15 5 -6 -5z"/>
<path d="M1830 516 c0 -2 8 -10 18 -17 15 -13 16 -12 3 4 -13 16 -21 21 -21
13z"/>
<path d="M2695 469 c-4 -6 -5 -12 -2 -15 2 -3 7 2 10 11 7 17 1 20 -8 4z"/>
<path d="M2590 379 c0 -5 5 -7 10 -4 6 3 10 8 10 11 0 2 -4 4 -10 4 -5 0 -10
-5 -10 -11z"/>
<path d="M1965 360 c-3 -6 1 -7 9 -4 18 7 21 14 7 14 -6 0 -13 -4 -16 -10z"/>
<path d="M2529 343 c-12 -16 -12 -17 1 -7 8 6 22 14 30 17 13 5 12 6 -1 6 -9
1 -23 -7 -30 -16z"/>
<path d="M2550 330 c-9 -6 -10 -10 -3 -10 6 0 15 5 18 10 8 12 4 12 -15 0z"/>
<path d="M2504 284 c-18 -14 -18 -15 4 -4 12 6 22 13 22 15 0 8 -5 6 -26 -11z"/>
<path d="M2055 280 c3 -5 8 -10 11 -10 2 0 4 5 4 10 0 6 -5 10 -11 10 -5 0 -7
-4 -4 -10z"/>
<path d="M2086 258 c3 -5 10 -6 15 -3 13 9 11 12 -6 12 -8 0 -12 -4 -9 -9z"/>
<path d="M2110 239 c0 -5 5 -7 10 -4 6 3 10 8 10 11 0 2 -4 4 -10 4 -5 0 -10
-5 -10 -11z"/>
<path d="M2126 222 c-3 -5 1 -9 9 -9 8 0 12 4 9 9 -3 4 -7 8 -9 8 -2 0 -6 -4
-9 -8z"/>
<path d="M2430 219 c0 -5 5 -7 10 -4 6 3 10 8 10 11 0 2 -4 4 -10 4 -5 0 -10
-5 -10 -11z"/>
<path d="M2284 208 c-3 -4 -9 -6 -13 -4 -4 3 -18 -9 -31 -27 -22 -30 -22 -31
-2 -13 12 11 22 15 22 11 0 -5 6 0 14 10 13 18 13 18 24 -1 6 -10 12 -13 12
-6 0 6 7 12 16 12 9 0 14 6 12 13 -5 14 -46 19 -54 5z m46 -3 c0 -7 -30 -13
-34 -7 -3 4 4 9 15 9 10 1 19 0 19 -2z"/>
<path d="M2350 199 c0 -9 31 -21 38 -14 3 3 0 5 -7 5 -7 0 -10 4 -7 8 3 5 -1
9 -9 9 -8 0 -15 -4 -15 -8z"/>
<path d="M2450 201 c0 -6 4 -13 10 -16 6 -3 7 1 4 9 -7 18 -14 21 -14 7z"/>
<path d="M2277 165 c-4 -8 -3 -16 1 -19 4 -3 9 4 9 15 2 23 -3 25 -10 4z"/>
<path d="M2330 170 c-9 -6 -10 -10 -3 -10 6 0 15 5 18 10 8 12 4 12 -15 0z"/>
<path d="M2330 139 c0 -5 5 -7 10 -4 6 3 10 8 10 11 0 2 -4 4 -10 4 -5 0 -10
-5 -10 -11z"/>
</g>
</svg>
